<svg width="816" height="45" viewBox="0 0 816 45" fill="none" xmlns="http://www.w3.org/2000/svg">
<path d="M6.4224e-06 35.25V2.25H7.25001V35.25H6.4224e-06ZM5.00001 35.25V29.4H25.45V35.25H5.00001ZM5.00001 21.25V15.9H22.95V21.25H5.00001ZM5.00001 8.05V2.25H25.35V8.05H5.00001ZM39.4977 35.25L28.5977 2.25H36.4477L44.2477 29.15H44.8977L52.7477 2.25H60.4977L49.5477 35.25H39.4977ZM65.0879 35.25V2.25H72.3379V35.25H65.0879ZM70.0879 35.25V29.4H90.5379V35.25H70.0879ZM70.0879 21.25V15.9H88.0379V21.25H70.0879ZM70.0879 8.05V2.25H90.4379V8.05H70.0879ZM96.1426 35.25V2.25H109.543C111.343 2.25 112.976 2.4 114.443 2.7C115.909 2.96667 117.209 3.36667 118.343 3.9C119.476 4.43333 120.426 5.1 121.193 5.9C121.993 6.66667 122.593 7.56667 122.993 8.6C123.393 9.6 123.593 10.7167 123.593 11.95C123.593 13.1167 123.409 14.1833 123.043 15.15C122.676 16.0833 122.126 16.9 121.393 17.6C120.659 18.3 119.743 18.8833 118.643 19.35C117.543 19.7833 116.259 20.0833 114.793 20.25V21C116.493 21.1667 117.843 21.5667 118.843 22.2C119.876 22.8 120.676 23.6167 121.243 24.65C121.843 25.6833 122.359 26.9667 122.793 28.5L124.793 35.25H116.843L115.293 29C114.993 27.6667 114.559 26.6333 113.993 25.9C113.426 25.1333 112.709 24.6 111.843 24.3C110.976 23.9667 109.926 23.8 108.693 23.8H103.343V35.25H96.1426ZM103.343 18.4H109.043C111.309 18.4 113.059 17.9667 114.293 17.1C115.526 16.2333 116.143 14.8833 116.143 13.05C116.143 11.25 115.559 9.93333 114.393 9.1C113.259 8.23333 111.543 7.8 109.243 7.8H103.343V18.4ZM137.804 35.25V24.95L125.654 2.25H134.254L141.304 18.45H141.604L148.604 2.25H157.104L145.054 24.9V35.25H137.804ZM169.305 35.25V2.25H176.505V35.25H169.305ZM159.555 8.3V2.25H186.255V8.3H159.555ZM212.519 35.25V2.25H219.669V35.25H212.519ZM190.869 35.25V2.25H198.069V35.25H190.869ZM195.119 21.5V15.6H215.369V21.5H195.119ZM227.002 35.25V2.25H234.352V35.25H227.002ZM241.65 35.25V2.25H251.05L266 25.6H266.55L266.1 2.25H273.1V35.25H264.6L248.8 10.8H248.25L248.7 35.25H241.65ZM293.47 35.95C290.77 35.95 288.337 35.3333 286.17 34.1C284.037 32.8333 282.337 30.9667 281.07 28.5C279.837 26 279.22 22.8667 279.22 19.1C279.22 16.3333 279.57 13.8833 280.27 11.75C281.003 9.58333 282.053 7.75 283.42 6.25C284.82 4.71666 286.537 3.55 288.57 2.75C290.603 1.95 292.953 1.55 295.62 1.55C297.62 1.55 299.437 1.78333 301.07 2.25C302.703 2.71667 304.12 3.38333 305.32 4.25C306.52 5.11667 307.453 6.16666 308.12 7.4C308.82 8.6 309.203 9.96667 309.27 11.5L302.47 13.6C302.403 12.2 302.037 11.05 301.37 10.15C300.737 9.25 299.887 8.58333 298.82 8.15C297.787 7.68333 296.62 7.45 295.32 7.45C293.52 7.45 291.97 7.86666 290.67 8.7C289.403 9.5 288.437 10.75 287.77 12.45C287.103 14.1167 286.77 16.2333 286.77 18.8C286.77 20.7667 286.953 22.4667 287.32 23.9C287.72 25.3 288.303 26.4667 289.07 27.4C289.837 28.3333 290.753 29.0333 291.82 29.5C292.887 29.9333 294.12 30.15 295.52 30.15C296.987 30.15 298.253 29.9167 299.32 29.45C300.42 28.95 301.287 28.2 301.92 27.2C302.587 26.1667 302.953 24.8667 303.02 23.3H296.77V18.1H310.12V24.15V35.25H305.12L305.22 26.8H304.32C303.787 28.8 303.07 30.4833 302.17 31.85C301.27 33.1833 300.103 34.2 298.67 34.9C297.27 35.6 295.537 35.95 293.47 35.95Z" fill="#0069F5"/>
<path d="M337.579 44.05C336.245 44.05 334.895 43.9 333.529 43.6C332.195 43.3333 330.962 42.9 329.829 42.3C328.695 41.7333 327.745 40.9833 326.979 40.05L329.179 35.75C330.045 36.8833 331.212 37.7333 332.679 38.3C334.145 38.9 335.695 39.2 337.329 39.2C339.195 39.2 340.729 38.8 341.929 38C343.162 37.2333 344.095 36.0333 344.729 34.4C345.362 32.7667 345.695 30.7167 345.729 28.25L346.179 23.25H345.229C344.862 25.6167 344.279 27.5167 343.479 28.95C342.712 30.3833 341.762 31.4167 340.629 32.05C339.495 32.6833 338.162 33 336.629 33C334.729 33 333.129 32.5333 331.829 31.6C330.562 30.6333 329.595 29.2167 328.929 27.35C328.295 25.45 327.979 23.1333 327.979 20.4V9.25H333.379V19.2C333.379 22.3667 333.795 24.6833 334.629 26.15C335.495 27.6167 336.779 28.35 338.479 28.35C339.412 28.35 340.245 28.1167 340.979 27.65C341.712 27.1833 342.345 26.5 342.879 25.6C343.445 24.6667 343.879 23.5167 344.179 22.15C344.512 20.7833 344.712 19.2 344.779 17.4V9.25H350.229V28.5C350.229 30.5667 350.062 32.4333 349.729 34.1C349.395 35.7333 348.879 37.1667 348.179 38.4C347.512 39.6667 346.679 40.7167 345.679 41.55C344.679 42.4167 343.495 43.05 342.129 43.45C340.795 43.85 339.279 44.05 337.579 44.05ZM368.97 35.9C366.47 35.9 364.253 35.3667 362.32 34.3C360.386 33.2333 358.87 31.6833 357.77 29.65C356.703 27.6167 356.17 25.1167 356.17 22.15C356.17 19.1167 356.736 16.6 357.87 14.6C359.003 12.6 360.52 11.1 362.42 10.1C364.353 9.1 366.52 8.6 368.92 8.6C371.386 8.6 373.586 9.11666 375.52 10.15C377.453 11.1833 378.97 12.7167 380.07 14.75C381.203 16.7833 381.77 19.3167 381.77 22.35C381.77 25.35 381.203 27.8667 380.07 29.9C378.97 31.9 377.453 33.4 375.52 34.4C373.586 35.4 371.403 35.9 368.97 35.9ZM369.17 31.6C370.67 31.6 371.953 31.25 373.02 30.55C374.086 29.85 374.903 28.8167 375.47 27.45C376.036 26.0833 376.32 24.45 376.32 22.55C376.32 20.5833 376.02 18.9 375.42 17.5C374.82 16.0667 373.953 14.9667 372.82 14.2C371.72 13.4333 370.37 13.05 368.77 13.05C367.336 13.05 366.07 13.4 364.97 14.1C363.903 14.7667 363.086 15.7833 362.52 17.15C361.953 18.4833 361.67 20.1167 361.67 22.05C361.67 25.0833 362.336 27.4333 363.67 29.1C365.003 30.7667 366.836 31.6 369.17 31.6ZM396.295 35.9C393.362 35.9 391.145 34.9 389.645 32.9C388.145 30.8667 387.395 27.8167 387.395 23.75V9.25H392.845V23.15C392.845 25.8833 393.262 27.9167 394.095 29.25C394.929 30.5833 396.245 31.25 398.045 31.25C399.045 31.25 399.929 31 400.695 30.5C401.462 30 402.129 29.3 402.695 28.4C403.295 27.5 403.762 26.45 404.095 25.25C404.462 24.0167 404.712 22.6667 404.845 21.2V9.25H410.245V24.45V35.25H405.645L405.895 27H405.045C404.612 29.0667 403.995 30.7667 403.195 32.1C402.429 33.4 401.462 34.3667 400.295 35C399.162 35.6 397.829 35.9 396.295 35.9ZM430.032 35.25V19.25V9.25H434.732L434.432 17.35H435.282C435.748 15.35 436.365 13.7167 437.132 12.45C437.932 11.15 438.932 10.1833 440.132 9.55C441.365 8.91666 442.798 8.6 444.432 8.6C447.332 8.6 449.532 9.63333 451.032 11.7C452.565 13.7667 453.332 16.9167 453.332 21.15V35.25H447.832V21.7C447.832 18.8 447.398 16.6833 446.532 15.35C445.665 13.9833 444.365 13.3 442.632 13.3C441.132 13.3 439.848 13.7833 438.782 14.75C437.748 15.6833 436.948 16.9167 436.382 18.45C435.815 19.9833 435.498 21.65 435.432 23.45V35.25H430.032ZM471.902 35.9C469.835 35.9 468.002 35.6 466.402 35C464.802 34.3667 463.452 33.4833 462.352 32.35C461.252 31.1833 460.418 29.8 459.852 28.2C459.285 26.5667 459.002 24.7333 459.002 22.7C459.002 20.6667 459.285 18.8 459.852 17.1C460.418 15.3667 461.218 13.8667 462.252 12.6C463.318 11.3333 464.618 10.35 466.152 9.65C467.718 8.95 469.485 8.6 471.452 8.6C473.285 8.6 474.918 8.9 476.352 9.5C477.818 10.1 479.052 11.0167 480.052 12.25C481.052 13.45 481.802 14.9667 482.302 16.8C482.802 18.6 482.985 20.7167 482.852 23.15L462.502 23.3V19.9L479.652 19.75L477.752 21.85C477.952 19.85 477.785 18.2 477.252 16.9C476.718 15.6 475.952 14.6333 474.952 14C473.952 13.3667 472.802 13.05 471.502 13.05C470.035 13.05 468.752 13.4333 467.652 14.2C466.585 14.9333 465.752 16.0167 465.152 17.45C464.552 18.8833 464.252 20.6 464.252 22.6C464.252 25.6 464.918 27.8667 466.252 29.4C467.585 30.9 469.485 31.65 471.952 31.65C472.985 31.65 473.868 31.5333 474.602 31.3C475.335 31.0333 475.952 30.7 476.452 30.3C476.952 29.8667 477.352 29.3667 477.652 28.8C477.985 28.2 478.252 27.5833 478.452 26.95L483.202 28.05C482.902 29.2833 482.435 30.3833 481.802 31.35C481.202 32.2833 480.435 33.1 479.502 33.8C478.568 34.4667 477.468 34.9833 476.202 35.35C474.968 35.7167 473.535 35.9 471.902 35.9ZM500.564 35.9C498.497 35.9 496.664 35.6 495.064 35C493.464 34.3667 492.114 33.4833 491.014 32.35C489.914 31.1833 489.08 29.8 488.514 28.2C487.947 26.5667 487.664 24.7333 487.664 22.7C487.664 20.6667 487.947 18.8 488.514 17.1C489.08 15.3667 489.88 13.8667 490.914 12.6C491.98 11.3333 493.28 10.35 494.814 9.65C496.38 8.95 498.147 8.6 500.114 8.6C501.947 8.6 503.58 8.9 505.014 9.5C506.48 10.1 507.714 11.0167 508.714 12.25C509.714 13.45 510.464 14.9667 510.964 16.8C511.464 18.6 511.647 20.7167 511.514 23.15L491.164 23.3V19.9L508.314 19.75L506.414 21.85C506.614 19.85 506.447 18.2 505.914 16.9C505.38 15.6 504.614 14.6333 503.614 14C502.614 13.3667 501.464 13.05 500.164 13.05C498.697 13.05 497.414 13.4333 496.314 14.2C495.247 14.9333 494.414 16.0167 493.814 17.45C493.214 18.8833 492.914 20.6 492.914 22.6C492.914 25.6 493.58 27.8667 494.914 29.4C496.247 30.9 498.147 31.65 500.614 31.65C501.647 31.65 502.53 31.5333 503.264 31.3C503.997 31.0333 504.614 30.7 505.114 30.3C505.614 29.8667 506.014 29.3667 506.314 28.8C506.647 28.2 506.914 27.5833 507.114 26.95L511.864 28.05C511.564 29.2833 511.097 30.3833 510.464 31.35C509.864 32.2833 509.097 33.1 508.164 33.8C507.23 34.4667 506.13 34.9833 504.864 35.35C503.63 35.7167 502.197 35.9 500.564 35.9ZM527.123 35.9C524.923 35.9 523.023 35.3333 521.423 34.2C519.823 33.0333 518.607 31.4333 517.773 29.4C516.94 27.3333 516.523 24.95 516.523 22.25C516.523 19.6167 516.907 17.2833 517.673 15.25C518.473 13.1833 519.64 11.5667 521.173 10.4C522.74 9.23333 524.657 8.65 526.923 8.65C528.723 8.65 530.207 9.01667 531.373 9.75C532.54 10.45 533.473 11.4167 534.173 12.65C534.907 13.8833 535.457 15.25 535.823 16.75H536.823C536.657 15.7833 536.49 14.7833 536.323 13.75C536.157 12.6833 536.023 11.6667 535.923 10.7C535.823 9.7 535.773 8.81667 535.773 8.05V-2.14577e-06H541.273V22.45V35.25H536.523L536.723 28.05H535.823C535.423 29.6833 534.857 31.0833 534.123 32.25C533.39 33.4167 532.44 34.3167 531.273 34.95C530.14 35.5833 528.757 35.9 527.123 35.9ZM528.623 31.3C529.79 31.3 530.823 31.0333 531.723 30.5C532.623 29.9667 533.373 29.2667 533.973 28.4C534.573 27.5333 535.023 26.6 535.323 25.6C535.657 24.5667 535.823 23.6 535.823 22.7V22C535.823 21.3333 535.723 20.6167 535.523 19.85C535.357 19.05 535.073 18.2667 534.673 17.5C534.307 16.7 533.84 15.9833 533.273 15.35C532.707 14.7167 532.023 14.2167 531.223 13.85C530.457 13.45 529.59 13.25 528.623 13.25C527.223 13.25 526.04 13.65 525.073 14.45C524.14 15.2167 523.423 16.2833 522.923 17.65C522.423 19.0167 522.173 20.5833 522.173 22.35C522.173 24.15 522.423 25.7333 522.923 27.1C523.457 28.4333 524.207 29.4667 525.173 30.2C526.14 30.9333 527.29 31.3 528.623 31.3ZM569.638 35.8C567.071 35.8 565.154 35.1 563.888 33.7C562.654 32.3 562.038 30.15 562.038 27.25V13.7H558.188L558.288 9.25H560.788C561.654 9.25 562.304 9.11667 562.738 8.85C563.171 8.55 563.438 8.03333 563.538 7.3L564.038 3.45H567.288V9.25H574.438V13.8H567.288V27.1C567.288 28.4 567.588 29.3333 568.188 29.9C568.788 30.4667 569.671 30.75 570.838 30.75C571.471 30.75 572.104 30.6833 572.738 30.55C573.404 30.3833 574.038 30.0833 574.638 29.65V34.9C573.638 35.2333 572.721 35.4667 571.888 35.6C571.054 35.7333 570.304 35.8 569.638 35.8ZM591.04 35.9C588.54 35.9 586.323 35.3667 584.39 34.3C582.457 33.2333 580.94 31.6833 579.84 29.65C578.773 27.6167 578.24 25.1167 578.24 22.15C578.24 19.1167 578.807 16.6 579.94 14.6C581.073 12.6 582.59 11.1 584.49 10.1C586.423 9.1 588.59 8.6 590.99 8.6C593.457 8.6 595.657 9.11666 597.59 10.15C599.523 11.1833 601.04 12.7167 602.14 14.75C603.273 16.7833 603.84 19.3167 603.84 22.35C603.84 25.35 603.273 27.8667 602.14 29.9C601.04 31.9 599.523 33.4 597.59 34.4C595.657 35.4 593.473 35.9 591.04 35.9ZM591.24 31.6C592.74 31.6 594.023 31.25 595.09 30.55C596.157 29.85 596.973 28.8167 597.54 27.45C598.107 26.0833 598.39 24.45 598.39 22.55C598.39 20.5833 598.09 18.9 597.49 17.5C596.89 16.0667 596.023 14.9667 594.89 14.2C593.79 13.4333 592.44 13.05 590.84 13.05C589.407 13.05 588.14 13.4 587.04 14.1C585.973 14.7667 585.157 15.7833 584.59 17.15C584.023 18.4833 583.74 20.1167 583.74 22.05C583.74 25.0833 584.407 27.4333 585.74 29.1C587.073 30.7667 588.907 31.6 591.24 31.6ZM632.07 35.9C630.27 35.9 628.67 35.7167 627.27 35.35C625.87 34.9833 624.67 34.4667 623.67 33.8C622.704 33.1 621.954 32.2667 621.42 31.3C620.887 30.3333 620.57 29.2833 620.47 28.15L624.87 26.7C624.87 27.6667 625.17 28.5333 625.77 29.3C626.37 30.0667 627.22 30.6667 628.32 31.1C629.454 31.5 630.804 31.7 632.37 31.7C634.204 31.7 635.62 31.4 636.62 30.8C637.62 30.2 638.12 29.3667 638.12 28.3C638.12 27.5 637.837 26.8667 637.27 26.4C636.737 25.9333 635.954 25.55 634.92 25.25C633.92 24.95 632.737 24.6667 631.37 24.4C630.137 24.1333 628.904 23.8333 627.67 23.5C626.47 23.1333 625.354 22.6667 624.32 22.1C623.32 21.5333 622.504 20.8 621.87 19.9C621.27 18.9667 620.97 17.8 620.97 16.4C620.97 14.8 621.387 13.4333 622.22 12.3C623.054 11.1333 624.254 10.2333 625.82 9.6C627.42 8.93333 629.32 8.6 631.52 8.6C633.654 8.6 635.487 8.91666 637.02 9.55C638.587 10.1833 639.837 11.0667 640.77 12.2C641.704 13.3333 642.27 14.6667 642.47 16.2L637.87 17.55C637.804 16.5167 637.487 15.65 636.92 14.95C636.387 14.25 635.654 13.7333 634.72 13.4C633.787 13.0333 632.687 12.85 631.42 12.85C629.754 12.85 628.437 13.15 627.47 13.75C626.537 14.35 626.07 15.1667 626.07 16.2C626.07 17 626.354 17.65 626.92 18.15C627.52 18.6167 628.32 19 629.32 19.3C630.354 19.5667 631.52 19.8333 632.82 20.1C634.154 20.3667 635.437 20.6667 636.67 21C637.904 21.3333 639.004 21.7833 639.97 22.35C640.97 22.8833 641.754 23.6167 642.32 24.55C642.92 25.45 643.22 26.6 643.22 28C643.22 29.7 642.754 31.15 641.82 32.35C640.92 33.5167 639.637 34.4 637.97 35C636.304 35.6 634.337 35.9 632.07 35.9ZM657.477 35.9C654.544 35.9 652.327 34.9 650.827 32.9C649.327 30.8667 648.577 27.8167 648.577 23.75V9.25H654.027V23.15C654.027 25.8833 654.444 27.9167 655.277 29.25C656.11 30.5833 657.427 31.25 659.227 31.25C660.227 31.25 661.11 31 661.877 30.5C662.644 30 663.31 29.3 663.877 28.4C664.477 27.5 664.944 26.45 665.277 25.25C665.644 24.0167 665.894 22.6667 666.027 21.2V9.25H671.427V24.45V35.25H666.827L667.077 27H666.227C665.794 29.0667 665.177 30.7667 664.377 32.1C663.61 33.4 662.644 34.3667 661.477 35C660.344 35.6 659.01 35.9 657.477 35.9ZM690.309 35.9C688.075 35.9 686.142 35.55 684.509 34.85C682.909 34.15 681.592 33.1833 680.559 31.95C679.525 30.7167 678.759 29.3 678.259 27.7C677.759 26.1 677.509 24.3833 677.509 22.55C677.509 20.5833 677.775 18.7667 678.309 17.1C678.842 15.4 679.625 13.9167 680.659 12.65C681.725 11.35 683.042 10.35 684.609 9.65C686.175 8.95 687.992 8.6 690.059 8.6C692.092 8.6 693.859 8.95 695.359 9.65C696.892 10.3167 698.142 11.2833 699.109 12.55C700.075 13.7833 700.709 15.2333 701.009 16.9L695.909 18.45C695.809 17.4833 695.525 16.5833 695.059 15.75C694.592 14.9167 693.925 14.2667 693.059 13.8C692.192 13.3 691.142 13.05 689.909 13.05C688.742 13.05 687.725 13.2833 686.859 13.75C685.992 14.1833 685.275 14.8333 684.709 15.7C684.142 16.5333 683.709 17.5167 683.409 18.65C683.142 19.7833 683.009 21.0333 683.009 22.4C683.009 24.2667 683.259 25.9 683.759 27.3C684.292 28.6667 685.109 29.7333 686.209 30.5C687.309 31.2333 688.692 31.6 690.359 31.6C691.759 31.6 692.909 31.35 693.809 30.85C694.709 30.35 695.409 29.6833 695.909 28.85C696.409 27.9833 696.742 26.9833 696.909 25.85L701.759 27C701.559 28.3667 701.159 29.6167 700.559 30.75C699.959 31.85 699.175 32.7833 698.209 33.55C697.242 34.3167 696.092 34.9 694.759 35.3C693.459 35.7 691.975 35.9 690.309 35.9ZM718.043 35.9C715.81 35.9 713.876 35.55 712.243 34.85C710.643 34.15 709.326 33.1833 708.293 31.95C707.26 30.7167 706.493 29.3 705.993 27.7C705.493 26.1 705.243 24.3833 705.243 22.55C705.243 20.5833 705.51 18.7667 706.043 17.1C706.576 15.4 707.36 13.9167 708.393 12.65C709.46 11.35 710.776 10.35 712.343 9.65C713.91 8.95 715.726 8.6 717.793 8.6C719.826 8.6 721.593 8.95 723.093 9.65C724.626 10.3167 725.876 11.2833 726.843 12.55C727.81 13.7833 728.443 15.2333 728.743 16.9L723.643 18.45C723.543 17.4833 723.26 16.5833 722.793 15.75C722.326 14.9167 721.66 14.2667 720.793 13.8C719.926 13.3 718.876 13.05 717.643 13.05C716.476 13.05 715.46 13.2833 714.593 13.75C713.726 14.1833 713.01 14.8333 712.443 15.7C711.876 16.5333 711.443 17.5167 711.143 18.65C710.876 19.7833 710.743 21.0333 710.743 22.4C710.743 24.2667 710.993 25.9 711.493 27.3C712.026 28.6667 712.843 29.7333 713.943 30.5C715.043 31.2333 716.426 31.6 718.093 31.6C719.493 31.6 720.643 31.35 721.543 30.85C722.443 30.35 723.143 29.6833 723.643 28.85C724.143 27.9833 724.476 26.9833 724.643 25.85L729.493 27C729.293 28.3667 728.893 29.6167 728.293 30.75C727.693 31.85 726.91 32.7833 725.943 33.55C724.976 34.3167 723.826 34.9 722.493 35.3C721.193 35.7 719.71 35.9 718.043 35.9ZM745.827 35.9C743.761 35.9 741.927 35.6 740.327 35C738.727 34.3667 737.377 33.4833 736.277 32.35C735.177 31.1833 734.344 29.8 733.777 28.2C733.211 26.5667 732.927 24.7333 732.927 22.7C732.927 20.6667 733.211 18.8 733.777 17.1C734.344 15.3667 735.144 13.8667 736.177 12.6C737.244 11.3333 738.544 10.35 740.077 9.65C741.644 8.95 743.411 8.6 745.377 8.6C747.211 8.6 748.844 8.9 750.277 9.5C751.744 10.1 752.977 11.0167 753.977 12.25C754.977 13.45 755.727 14.9667 756.227 16.8C756.727 18.6 756.911 20.7167 756.777 23.15L736.427 23.3V19.9L753.577 19.75L751.677 21.85C751.877 19.85 751.711 18.2 751.177 16.9C750.644 15.6 749.877 14.6333 748.877 14C747.877 13.3667 746.727 13.05 745.427 13.05C743.961 13.05 742.677 13.4333 741.577 14.2C740.511 14.9333 739.677 16.0167 739.077 17.45C738.477 18.8833 738.177 20.6 738.177 22.6C738.177 25.6 738.844 27.8667 740.177 29.4C741.511 30.9 743.411 31.65 745.877 31.65C746.911 31.65 747.794 31.5333 748.527 31.3C749.261 31.0333 749.877 30.7 750.377 30.3C750.877 29.8667 751.277 29.3667 751.577 28.8C751.911 28.2 752.177 27.5833 752.377 26.95L757.127 28.05C756.827 29.2833 756.361 30.3833 755.727 31.35C755.127 32.2833 754.361 33.1 753.427 33.8C752.494 34.4667 751.394 34.9833 750.127 35.35C748.894 35.7167 747.461 35.9 745.827 35.9ZM774.489 35.9C772.423 35.9 770.589 35.6 768.989 35C767.389 34.3667 766.039 33.4833 764.939 32.35C763.839 31.1833 763.006 29.8 762.439 28.2C761.873 26.5667 761.589 24.7333 761.589 22.7C761.589 20.6667 761.873 18.8 762.439 17.1C763.006 15.3667 763.806 13.8667 764.839 12.6C765.906 11.3333 767.206 10.35 768.739 9.65C770.306 8.95 772.073 8.6 774.039 8.6C775.873 8.6 777.506 8.9 778.939 9.5C780.406 10.1 781.639 11.0167 782.639 12.25C783.639 13.45 784.389 14.9667 784.889 16.8C785.389 18.6 785.573 20.7167 785.439 23.15L765.089 23.3V19.9L782.239 19.75L780.339 21.85C780.539 19.85 780.373 18.2 779.839 16.9C779.306 15.6 778.539 14.6333 777.539 14C776.539 13.3667 775.389 13.05 774.089 13.05C772.623 13.05 771.339 13.4333 770.239 14.2C769.173 14.9333 768.339 16.0167 767.739 17.45C767.139 18.8833 766.839 20.6 766.839 22.6C766.839 25.6 767.506 27.8667 768.839 29.4C770.173 30.9 772.073 31.65 774.539 31.65C775.573 31.65 776.456 31.5333 777.189 31.3C777.923 31.0333 778.539 30.7 779.039 30.3C779.539 29.8667 779.939 29.3667 780.239 28.8C780.573 28.2 780.839 27.5833 781.039 26.95L785.789 28.05C785.489 29.2833 785.023 30.3833 784.389 31.35C783.789 32.2833 783.023 33.1 782.089 33.8C781.156 34.4667 780.056 34.9833 778.789 35.35C777.556 35.7167 776.123 35.9 774.489 35.9ZM801.049 35.9C798.849 35.9 796.949 35.3333 795.349 34.2C793.749 33.0333 792.533 31.4333 791.699 29.4C790.866 27.3333 790.449 24.95 790.449 22.25C790.449 19.6167 790.833 17.2833 791.599 15.25C792.399 13.1833 793.566 11.5667 795.099 10.4C796.666 9.23333 798.583 8.65 800.849 8.65C802.649 8.65 804.133 9.01667 805.299 9.75C806.466 10.45 807.399 11.4167 808.099 12.65C808.833 13.8833 809.383 15.25 809.749 16.75H810.749C810.583 15.7833 810.416 14.7833 810.249 13.75C810.083 12.6833 809.949 11.6667 809.849 10.7C809.749 9.7 809.699 8.81667 809.699 8.05V-2.14577e-06H815.199V22.45V35.25H810.449L810.649 28.05H809.749C809.349 29.6833 808.783 31.0833 808.049 32.25C807.316 33.4167 806.366 34.3167 805.199 34.95C804.066 35.5833 802.683 35.9 801.049 35.9ZM802.549 31.3C803.716 31.3 804.749 31.0333 805.649 30.5C806.549 29.9667 807.299 29.2667 807.899 28.4C808.499 27.5333 808.949 26.6 809.249 25.6C809.583 24.5667 809.749 23.6 809.749 22.7V22C809.749 21.3333 809.649 20.6167 809.449 19.85C809.283 19.05 808.999 18.2667 808.599 17.5C808.233 16.7 807.766 15.9833 807.199 15.35C806.633 14.7167 805.949 14.2167 805.149 13.85C804.383 13.45 803.516 13.25 802.549 13.25C801.149 13.25 799.966 13.65 798.999 14.45C798.066 15.2167 797.349 16.2833 796.849 17.65C796.349 19.0167 796.099 20.5833 796.099 22.35C796.099 24.15 796.349 25.7333 796.849 27.1C797.383 28.4333 798.133 29.4667 799.099 30.2C800.066 30.9333 801.216 31.3 802.549 31.3Z" fill="black"/>
</svg>
