<svg width="356" height="100" viewBox="0 0 356 100" fill="none" xmlns="http://www.w3.org/2000/svg">
<rect width="356" height="100" rx="25" fill="#0069F5"/>
<path d="M23.848 61.416C22.12 61.416 20.5733 61.0213 19.208 60.232C17.864 59.4213 16.7973 58.216 16.008 56.616C15.24 55.016 14.856 53.0107 14.856 50.6C14.856 48.8507 15.0693 47.2933 15.496 45.928C15.9227 44.5627 16.5627 43.4 17.416 42.44C18.2693 41.48 19.304 40.744 20.52 40.232C21.7573 39.72 23.1867 39.464 24.808 39.464C26.024 39.464 27.1227 39.6133 28.104 39.912C29.0853 40.2107 29.9387 40.6373 30.664 41.192C31.3893 41.7467 31.9653 42.4187 32.392 43.208C32.84 43.9973 33.096 44.904 33.16 45.928L29.832 46.92C29.768 45.8533 29.4907 44.9893 29 44.328C28.5093 43.6667 27.88 43.1867 27.112 42.888C26.3653 42.5893 25.5653 42.44 24.712 42.44C23.4533 42.44 22.3547 42.7173 21.416 43.272C20.4987 43.8267 19.784 44.7013 19.272 45.896C18.76 47.0693 18.504 48.5947 18.504 50.472C18.504 51.9227 18.6533 53.16 18.952 54.184C19.272 55.1867 19.6987 56.008 20.232 56.648C20.7867 57.2667 21.4373 57.7253 22.184 58.024C22.952 58.3013 23.7733 58.44 24.648 58.44C25.7147 58.44 26.632 58.248 27.4 57.864C28.168 57.48 28.7867 56.8933 29.256 56.104C29.7253 55.3147 30.0133 54.312 30.12 53.096H25.576V50.44H33.576V53.832V61H30.92L31.336 55.368H30.824C30.5253 56.712 30.0773 57.832 29.48 58.728C28.904 59.624 28.1573 60.296 27.24 60.744C26.3227 61.192 25.192 61.416 23.848 61.416ZM45.3218 61.416C43.9991 61.416 42.8258 61.224 41.8018 60.84C40.7778 60.4347 39.9138 59.8693 39.2098 59.144C38.5058 58.3973 37.9724 57.512 37.6098 56.488C37.2471 55.4427 37.0658 54.2693 37.0658 52.968C37.0658 51.6667 37.2471 50.472 37.6098 49.384C37.9724 48.2747 38.4844 47.3147 39.1458 46.504C39.8284 45.6933 40.6604 45.064 41.6418 44.616C42.6444 44.168 43.7751 43.944 45.0338 43.944C46.2071 43.944 47.2524 44.136 48.1698 44.52C49.1084 44.904 49.8978 45.4907 50.5378 46.28C51.1778 47.048 51.6578 48.0187 51.9778 49.192C52.2978 50.344 52.4151 51.6987 52.3298 53.256L39.3058 53.352V51.176L50.2818 51.08L49.0658 52.424C49.1938 51.144 49.0871 50.088 48.7458 49.256C48.4044 48.424 47.9138 47.8053 47.2738 47.4C46.6338 46.9947 45.8978 46.792 45.0658 46.792C44.1271 46.792 43.3058 47.0373 42.6018 47.528C41.9191 47.9973 41.3858 48.6907 41.0018 49.608C40.6178 50.5253 40.4258 51.624 40.4258 52.904C40.4258 54.824 40.8524 56.2747 41.7058 57.256C42.5591 58.216 43.7751 58.696 45.3538 58.696C46.0151 58.696 46.5804 58.6213 47.0498 58.472C47.5191 58.3013 47.9138 58.088 48.2338 57.832C48.5538 57.5547 48.8098 57.2347 49.0018 56.872C49.2151 56.488 49.3858 56.0933 49.5138 55.688L52.5538 56.392C52.3618 57.1813 52.0631 57.8853 51.6578 58.504C51.2738 59.1013 50.7831 59.624 50.1858 60.072C49.5884 60.4987 48.8844 60.8293 48.0738 61.064C47.2844 61.2987 46.3671 61.416 45.3218 61.416ZM61.7478 61.352C60.1051 61.352 58.8784 60.904 58.0677 60.008C57.2784 59.112 56.8838 57.736 56.8838 55.88V47.208H54.4198L54.4838 44.36H56.0838C56.6384 44.36 57.0544 44.2747 57.3318 44.104C57.6091 43.912 57.7798 43.5813 57.8438 43.112L58.1638 40.648H60.2438V44.36H64.8198V47.272H60.2438V55.784C60.2438 56.616 60.4358 57.2133 60.8198 57.576C61.2038 57.9387 61.7691 58.12 62.5158 58.12C62.9211 58.12 63.3264 58.0773 63.7318 57.992C64.1584 57.8853 64.5638 57.6933 64.9478 57.416V60.776C64.3078 60.9893 63.7211 61.1387 63.1878 61.224C62.6544 61.3093 62.1744 61.352 61.7478 61.352ZM84.115 61.416C82.7283 61.416 81.491 61.2773 80.403 61C79.3363 60.7013 78.4297 60.2747 77.683 59.72C76.9577 59.144 76.403 58.44 76.019 57.608C75.6563 56.7547 75.4857 55.7733 75.507 54.664L78.611 53.832C78.5683 54.8987 78.771 55.784 79.219 56.488C79.667 57.192 80.3283 57.7253 81.203 58.088C82.099 58.4293 83.123 58.6 84.275 58.6C85.4057 58.6 86.355 58.4613 87.123 58.184C87.891 57.9067 88.467 57.5333 88.851 57.064C89.2563 56.5733 89.459 56.0187 89.459 55.4C89.459 54.696 89.2137 54.1413 88.723 53.736C88.2537 53.3093 87.6243 52.9787 86.835 52.744C86.0457 52.488 85.1603 52.2533 84.179 52.04C83.1763 51.8267 82.1843 51.5813 81.203 51.304C80.2217 51.0267 79.3257 50.664 78.515 50.216C77.7257 49.7467 77.0857 49.1493 76.595 48.424C76.1257 47.6987 75.891 46.7813 75.891 45.672C75.891 44.392 76.211 43.2933 76.851 42.376C77.491 41.4587 78.3977 40.744 79.571 40.232C80.7657 39.72 82.1737 39.464 83.795 39.464C85.4163 39.464 86.835 39.72 88.051 40.232C89.2883 40.7227 90.259 41.448 90.963 42.408C91.6883 43.3467 92.0617 44.488 92.083 45.832L88.883 46.664C88.883 45.9387 88.755 45.2987 88.499 44.744C88.2643 44.1893 87.923 43.7307 87.475 43.368C87.027 43.0053 86.4937 42.7387 85.875 42.568C85.2563 42.376 84.5523 42.28 83.763 42.28C82.8457 42.28 82.0457 42.4187 81.363 42.696C80.6803 42.952 80.147 43.3147 79.763 43.784C79.4003 44.232 79.219 44.7653 79.219 45.384C79.219 46.152 79.4857 46.76 80.019 47.208C80.5737 47.6347 81.299 47.9867 82.195 48.264C83.091 48.52 84.051 48.7653 85.075 49C85.9923 49.192 86.899 49.4267 87.795 49.704C88.7123 49.96 89.5443 50.312 90.291 50.76C91.059 51.208 91.667 51.7947 92.115 52.52C92.5843 53.2453 92.819 54.1733 92.819 55.304C92.819 56.5413 92.4883 57.6187 91.827 58.536C91.187 59.4533 90.227 60.168 88.947 60.68C87.667 61.1707 86.0563 61.416 84.115 61.416ZM102.279 61.352C100.636 61.352 99.4097 60.904 98.599 60.008C97.8097 59.112 97.415 57.736 97.415 55.88V47.208H94.951L95.015 44.36H96.615C97.1697 44.36 97.5857 44.2747 97.863 44.104C98.1403 43.912 98.311 43.5813 98.375 43.112L98.695 40.648H100.775V44.36H105.351V47.272H100.775V55.784C100.775 56.616 100.967 57.2133 101.351 57.576C101.735 57.9387 102.3 58.12 103.047 58.12C103.452 58.12 103.858 58.0773 104.263 57.992C104.69 57.8853 105.095 57.6933 105.479 57.416V60.776C104.839 60.9893 104.252 61.1387 103.719 61.224C103.186 61.3093 102.706 61.352 102.279 61.352ZM112.771 61.416C111.854 61.416 111.033 61.2453 110.307 60.904C109.582 60.5413 109.006 60.008 108.579 59.304C108.174 58.6 107.971 57.7253 107.971 56.68C107.971 55.848 108.121 55.1333 108.419 54.536C108.739 53.9173 109.209 53.4053 109.827 53C110.467 52.5733 111.278 52.232 112.259 51.976C113.241 51.6987 114.403 51.464 115.747 51.272C116.494 51.1653 117.102 51.0587 117.571 50.952C118.062 50.8453 118.414 50.6747 118.627 50.44C118.862 50.2053 118.979 49.8533 118.979 49.384C118.979 48.6587 118.723 48.04 118.211 47.528C117.721 46.9947 116.921 46.728 115.811 46.728C115.193 46.728 114.574 46.8347 113.955 47.048C113.358 47.2613 112.835 47.6133 112.387 48.104C111.961 48.5733 111.673 49.2133 111.523 50.024L108.387 49.032C108.579 48.2213 108.889 47.5067 109.315 46.888C109.742 46.248 110.275 45.7147 110.915 45.288C111.555 44.84 112.291 44.5093 113.123 44.296C113.977 44.0613 114.905 43.944 115.907 43.944C117.379 43.944 118.595 44.1893 119.555 44.68C120.515 45.1707 121.23 45.928 121.699 46.952C122.19 47.9547 122.435 49.2453 122.435 50.824V54.216C122.435 54.92 122.446 55.6667 122.467 56.456C122.51 57.224 122.553 58.0027 122.595 58.792C122.659 59.56 122.734 60.296 122.819 61H119.651C119.587 60.36 119.523 59.6987 119.459 59.016C119.417 58.3333 119.374 57.64 119.331 56.936H118.851C118.553 57.7467 118.126 58.4933 117.571 59.176C117.038 59.8587 116.366 60.4027 115.555 60.808C114.766 61.2133 113.838 61.416 112.771 61.416ZM113.987 58.728C114.435 58.728 114.883 58.6533 115.331 58.504C115.801 58.3547 116.259 58.1307 116.707 57.832C117.177 57.512 117.603 57.1067 117.987 56.616C118.393 56.1253 118.745 55.5387 119.043 54.856L119.011 51.848L119.843 52.008C119.481 52.328 119.022 52.5733 118.467 52.744C117.934 52.9147 117.347 53.0533 116.707 53.16C116.067 53.2453 115.427 53.352 114.787 53.48C114.169 53.5867 113.593 53.7467 113.059 53.96C112.547 54.152 112.131 54.4293 111.811 54.792C111.513 55.1547 111.363 55.656 111.363 56.296C111.363 57.0853 111.609 57.6933 112.099 58.12C112.59 58.5253 113.219 58.728 113.987 58.728ZM127.088 61V52.328V44.36H130.096L129.936 50.12H130.48C130.672 48.8187 130.97 47.7093 131.376 46.792C131.781 45.8747 132.336 45.1813 133.04 44.712C133.744 44.2213 134.618 43.976 135.664 43.976C135.877 43.976 136.112 43.9867 136.368 44.008C136.624 44.0293 136.912 44.0933 137.232 44.2L137.072 47.848C136.752 47.72 136.421 47.6347 136.08 47.592C135.738 47.528 135.429 47.496 135.152 47.496C134.298 47.496 133.573 47.7413 132.976 48.232C132.378 48.7013 131.877 49.3627 131.472 50.216C131.088 51.048 130.789 52.0187 130.576 53.128V61H127.088ZM146.56 61.352C144.918 61.352 143.691 60.904 142.88 60.008C142.091 59.112 141.696 57.736 141.696 55.88V47.208H139.232L139.296 44.36H140.896C141.451 44.36 141.867 44.2747 142.144 44.104C142.422 43.912 142.592 43.5813 142.656 43.112L142.976 40.648H145.056V44.36H149.632V47.272H145.056V55.784C145.056 56.616 145.248 57.2133 145.632 57.576C146.016 57.9387 146.582 58.12 147.328 58.12C147.734 58.12 148.139 58.0773 148.544 57.992C148.971 57.8853 149.376 57.6933 149.76 57.416V60.776C149.12 60.9893 148.534 61.1387 148 61.224C147.467 61.3093 146.987 61.352 146.56 61.352ZM160.384 61.416C159.062 61.416 157.888 61.224 156.864 60.84C155.84 60.4347 154.976 59.8693 154.272 59.144C153.568 58.3973 153.035 57.512 152.672 56.488C152.31 55.4427 152.128 54.2693 152.128 52.968C152.128 51.6667 152.31 50.472 152.672 49.384C153.035 48.2747 153.547 47.3147 154.208 46.504C154.891 45.6933 155.723 45.064 156.704 44.616C157.707 44.168 158.838 43.944 160.096 43.944C161.27 43.944 162.315 44.136 163.232 44.52C164.171 44.904 164.96 45.4907 165.6 46.28C166.24 47.048 166.72 48.0187 167.04 49.192C167.36 50.344 167.478 51.6987 167.392 53.256L154.368 53.352V51.176L165.344 51.08L164.128 52.424C164.256 51.144 164.15 50.088 163.808 49.256C163.467 48.424 162.976 47.8053 162.336 47.4C161.696 46.9947 160.96 46.792 160.128 46.792C159.19 46.792 158.368 47.0373 157.664 47.528C156.982 47.9973 156.448 48.6907 156.064 49.608C155.68 50.5253 155.488 51.624 155.488 52.904C155.488 54.824 155.915 56.2747 156.768 57.256C157.622 58.216 158.838 58.696 160.416 58.696C161.078 58.696 161.643 58.6213 162.112 58.472C162.582 58.3013 162.976 58.088 163.296 57.832C163.616 57.5547 163.872 57.2347 164.064 56.872C164.278 56.488 164.448 56.0933 164.576 55.688L167.616 56.392C167.424 57.1813 167.126 57.8853 166.72 58.504C166.336 59.1013 165.846 59.624 165.248 60.072C164.651 60.4987 163.947 60.8293 163.136 61.064C162.347 61.2987 161.43 61.416 160.384 61.416ZM177.383 61.416C175.975 61.416 174.759 61.0533 173.735 60.328C172.711 59.5813 171.932 58.5573 171.399 57.256C170.865 55.9333 170.599 54.408 170.599 52.68C170.599 50.9947 170.844 49.5013 171.335 48.2C171.847 46.8773 172.593 45.8427 173.575 45.096C174.577 44.3493 175.804 43.976 177.255 43.976C178.407 43.976 179.356 44.2107 180.103 44.68C180.849 45.128 181.447 45.7467 181.895 46.536C182.364 47.3253 182.716 48.2 182.951 49.16H183.591C183.484 48.5413 183.377 47.9013 183.271 47.24C183.164 46.5573 183.079 45.9067 183.015 45.288C182.951 44.648 182.919 44.0827 182.919 43.592V38.44H186.439V52.808V61H183.399L183.527 56.392H182.951C182.695 57.4373 182.332 58.3333 181.863 59.08C181.393 59.8267 180.785 60.4027 180.039 60.808C179.313 61.2133 178.428 61.416 177.383 61.416ZM178.343 58.472C179.089 58.472 179.751 58.3013 180.327 57.96C180.903 57.6187 181.383 57.1707 181.767 56.616C182.151 56.0613 182.439 55.464 182.631 54.824C182.844 54.1627 182.951 53.544 182.951 52.968V52.52C182.951 52.0933 182.887 51.6347 182.759 51.144C182.652 50.632 182.471 50.1307 182.215 49.64C181.98 49.128 181.681 48.6693 181.319 48.264C180.956 47.8587 180.519 47.5387 180.007 47.304C179.516 47.048 178.961 46.92 178.343 46.92C177.447 46.92 176.689 47.176 176.071 47.688C175.473 48.1787 175.015 48.8613 174.695 49.736C174.375 50.6107 174.215 51.6133 174.215 52.744C174.215 53.896 174.375 54.9093 174.695 55.784C175.036 56.6373 175.516 57.2987 176.135 57.768C176.753 58.2373 177.489 58.472 178.343 58.472ZM199.312 61V39.88H202.8V61H199.312ZM200.816 52.328V49.384H213.008V52.328H200.816ZM200.816 42.92V39.88H214.319V42.92H200.816ZM217.025 61V52.328V44.36H220.033L219.873 50.12H220.417C220.609 48.8187 220.908 47.7093 221.313 46.792C221.718 45.8747 222.273 45.1813 222.977 44.712C223.681 44.2213 224.556 43.976 225.601 43.976C225.814 43.976 226.049 43.9867 226.305 44.008C226.561 44.0293 226.849 44.0933 227.169 44.2L227.009 47.848C226.689 47.72 226.358 47.6347 226.017 47.592C225.676 47.528 225.366 47.496 225.089 47.496C224.236 47.496 223.51 47.7413 222.913 48.232C222.316 48.7013 221.814 49.3627 221.409 50.216C221.025 51.048 220.726 52.0187 220.513 53.128V61H217.025ZM237.291 61.416C235.968 61.416 234.795 61.224 233.771 60.84C232.747 60.4347 231.883 59.8693 231.179 59.144C230.475 58.3973 229.941 57.512 229.579 56.488C229.216 55.4427 229.035 54.2693 229.035 52.968C229.035 51.6667 229.216 50.472 229.579 49.384C229.941 48.2747 230.453 47.3147 231.115 46.504C231.797 45.6933 232.629 45.064 233.611 44.616C234.613 44.168 235.744 43.944 237.003 43.944C238.176 43.944 239.221 44.136 240.139 44.52C241.077 44.904 241.867 45.4907 242.507 46.28C243.147 47.048 243.627 48.0187 243.947 49.192C244.267 50.344 244.384 51.6987 244.299 53.256L231.275 53.352V51.176L242.251 51.08L241.035 52.424C241.163 51.144 241.056 50.088 240.715 49.256C240.373 48.424 239.883 47.8053 239.243 47.4C238.603 46.9947 237.867 46.792 237.035 46.792C236.096 46.792 235.275 47.0373 234.571 47.528C233.888 47.9973 233.355 48.6907 232.971 49.608C232.587 50.5253 232.395 51.624 232.395 52.904C232.395 54.824 232.821 56.2747 233.675 57.256C234.528 58.216 235.744 58.696 237.323 58.696C237.984 58.696 238.549 58.6213 239.019 58.472C239.488 58.3013 239.883 58.088 240.203 57.832C240.523 57.5547 240.779 57.2347 240.971 56.872C241.184 56.488 241.355 56.0933 241.483 55.688L244.523 56.392C244.331 57.1813 244.032 57.8853 243.627 58.504C243.243 59.1013 242.752 59.624 242.155 60.072C241.557 60.4987 240.853 60.8293 240.043 61.064C239.253 61.2987 238.336 61.416 237.291 61.416ZM255.634 61.416C254.312 61.416 253.138 61.224 252.114 60.84C251.09 60.4347 250.226 59.8693 249.522 59.144C248.818 58.3973 248.285 57.512 247.922 56.488C247.56 55.4427 247.378 54.2693 247.378 52.968C247.378 51.6667 247.56 50.472 247.922 49.384C248.285 48.2747 248.797 47.3147 249.458 46.504C250.141 45.6933 250.973 45.064 251.954 44.616C252.957 44.168 254.088 43.944 255.346 43.944C256.52 43.944 257.565 44.136 258.482 44.52C259.421 44.904 260.21 45.4907 260.85 46.28C261.49 47.048 261.97 48.0187 262.29 49.192C262.61 50.344 262.728 51.6987 262.642 53.256L249.618 53.352V51.176L260.594 51.08L259.378 52.424C259.506 51.144 259.4 50.088 259.058 49.256C258.717 48.424 258.226 47.8053 257.586 47.4C256.946 46.9947 256.21 46.792 255.378 46.792C254.44 46.792 253.618 47.0373 252.914 47.528C252.232 47.9973 251.698 48.6907 251.314 49.608C250.93 50.5253 250.738 51.624 250.738 52.904C250.738 54.824 251.165 56.2747 252.018 57.256C252.872 58.216 254.088 58.696 255.666 58.696C256.328 58.696 256.893 58.6213 257.362 58.472C257.832 58.3013 258.226 58.088 258.546 57.832C258.866 57.5547 259.122 57.2347 259.314 56.872C259.528 56.488 259.698 56.0933 259.826 55.688L262.866 56.392C262.674 57.1813 262.376 57.8853 261.97 58.504C261.586 59.1013 261.096 59.624 260.498 60.072C259.901 60.4987 259.197 60.8293 258.386 61.064C257.597 61.2987 256.68 61.416 255.634 61.416Z" fill="white"/>
<path d="M297.667 61.5267V52.1934H276.853L276.783 47.5034H297.667V38.1934L309.333 49.86L297.667 61.5267Z" fill="white"/>
</svg>
