<svg width="1728" height="113" viewBox="0 0 1728 113" fill="none" xmlns="http://www.w3.org/2000/svg">
<mask id="path-1-inside-1_9_166" fill="white">
<path d="M0 0H1728V113H0V0Z"/>
</mask>
<path d="M0 0H1728V113H0V0Z" fill="#ECF2FD"/>
<path d="M1728 113V112H0V113V114H1728V113Z" fill="#0069F5" mask="url(#path-1-inside-1_9_166)"/>
<path d="M106.665 69L114.61 57.415L106.84 45.9H112.72L118.04 54.72H118.25L123.605 45.9H129.52L121.645 57.31L129.73 69H123.85L118.215 59.97H118.04L112.545 69H106.665Z" fill="#0069F5"/>
<path d="M137.334 69.455C136.354 69.455 135.468 69.2683 134.674 68.895C133.881 68.4983 133.251 67.9267 132.784 67.18C132.318 66.41 132.084 65.4417 132.084 64.275C132.084 63.4117 132.236 62.6533 132.539 62C132.866 61.3467 133.356 60.7867 134.009 60.32C134.686 59.8533 135.549 59.4683 136.599 59.165C137.649 58.8617 138.933 58.605 140.449 58.395C141.313 58.2783 142.013 58.1617 142.549 58.045C143.109 57.9283 143.518 57.7417 143.774 57.485C144.031 57.205 144.159 56.7967 144.159 56.26C144.159 55.3733 143.856 54.6267 143.249 54.02C142.643 53.4133 141.686 53.11 140.379 53.11C139.703 53.11 139.014 53.2267 138.314 53.46C137.614 53.6933 136.996 54.09 136.459 54.65C135.946 55.1867 135.619 55.945 135.479 56.925L132.539 55.945C132.726 55.105 133.029 54.3467 133.449 53.67C133.893 52.9933 134.453 52.4217 135.129 51.955C135.806 51.465 136.588 51.0917 137.474 50.835C138.384 50.5783 139.388 50.45 140.484 50.45C142.001 50.45 143.261 50.7067 144.264 51.22C145.291 51.7333 146.049 52.5267 146.539 53.6C147.053 54.65 147.309 56.0033 147.309 57.66V61.685C147.309 62.4083 147.321 63.2017 147.344 64.065C147.391 64.905 147.449 65.7567 147.519 66.62C147.589 67.46 147.659 68.2533 147.729 69H144.789C144.719 68.2533 144.649 67.5067 144.579 66.76C144.533 66.0133 144.498 65.2667 144.474 64.52H144.019C143.669 65.3833 143.203 66.1883 142.619 66.935C142.036 67.6817 141.301 68.2883 140.414 68.755C139.551 69.2217 138.524 69.455 137.334 69.455ZM138.279 66.865C138.793 66.865 139.306 66.7833 139.819 66.62C140.356 66.4567 140.881 66.1883 141.394 65.815C141.931 65.4417 142.433 64.9633 142.899 64.38C143.389 63.7967 143.821 63.0967 144.194 62.28V58.78L145.104 58.955C144.731 59.3283 144.229 59.6083 143.599 59.795C142.993 59.9817 142.316 60.1333 141.569 60.25C140.823 60.3667 140.076 60.495 139.329 60.635C138.583 60.7517 137.894 60.9383 137.264 61.195C136.658 61.4283 136.168 61.7667 135.794 62.21C135.421 62.6533 135.234 63.26 135.234 64.03C135.234 64.9633 135.514 65.675 136.074 66.165C136.634 66.6317 137.369 66.865 138.279 66.865ZM156.783 69.455C155.803 69.455 154.916 69.2683 154.123 68.895C153.329 68.4983 152.699 67.9267 152.233 67.18C151.766 66.41 151.533 65.4417 151.533 64.275C151.533 63.4117 151.684 62.6533 151.988 62C152.314 61.3467 152.804 60.7867 153.458 60.32C154.134 59.8533 154.998 59.4683 156.048 59.165C157.098 58.8617 158.381 58.605 159.898 58.395C160.761 58.2783 161.461 58.1617 161.998 58.045C162.558 57.9283 162.966 57.7417 163.223 57.485C163.479 57.205 163.608 56.7967 163.608 56.26C163.608 55.3733 163.304 54.6267 162.698 54.02C162.091 53.4133 161.134 53.11 159.828 53.11C159.151 53.11 158.463 53.2267 157.763 53.46C157.063 53.6933 156.444 54.09 155.908 54.65C155.394 55.1867 155.068 55.945 154.928 56.925L151.988 55.945C152.174 55.105 152.478 54.3467 152.898 53.67C153.341 52.9933 153.901 52.4217 154.578 51.955C155.254 51.465 156.036 51.0917 156.923 50.835C157.833 50.5783 158.836 50.45 159.933 50.45C161.449 50.45 162.709 50.7067 163.713 51.22C164.739 51.7333 165.498 52.5267 165.988 53.6C166.501 54.65 166.758 56.0033 166.758 57.66V61.685C166.758 62.4083 166.769 63.2017 166.793 64.065C166.839 64.905 166.898 65.7567 166.968 66.62C167.038 67.46 167.108 68.2533 167.178 69H164.238C164.168 68.2533 164.098 67.5067 164.028 66.76C163.981 66.0133 163.946 65.2667 163.923 64.52H163.468C163.118 65.3833 162.651 66.1883 162.068 66.935C161.484 67.6817 160.749 68.2883 159.863 68.755C158.999 69.2217 157.973 69.455 156.783 69.455ZM157.728 66.865C158.241 66.865 158.754 66.7833 159.268 66.62C159.804 66.4567 160.329 66.1883 160.843 65.815C161.379 65.4417 161.881 64.9633 162.348 64.38C162.838 63.7967 163.269 63.0967 163.643 62.28V58.78L164.553 58.955C164.179 59.3283 163.678 59.6083 163.048 59.795C162.441 59.9817 161.764 60.1333 161.018 60.25C160.271 60.3667 159.524 60.495 158.778 60.635C158.031 60.7517 157.343 60.9383 156.713 61.195C156.106 61.4283 155.616 61.7667 155.243 62.21C154.869 62.6533 154.683 63.26 154.683 64.03C154.683 64.9633 154.963 65.675 155.523 66.165C156.083 66.6317 156.818 66.865 157.728 66.865ZM172.1 69V57.8V50.905H174.935L174.62 56.645H175.215C175.518 55.2683 175.927 54.125 176.44 53.215C176.953 52.2817 177.583 51.5933 178.33 51.15C179.1 50.6833 179.975 50.45 180.955 50.45C182.122 50.45 183.078 50.7417 183.825 51.325C184.572 51.885 185.12 52.62 185.47 53.53C185.843 54.44 186.03 55.4433 186.03 56.54H186.59C186.847 55.2333 187.243 54.125 187.78 53.215C188.317 52.305 188.982 51.6167 189.775 51.15C190.568 50.6833 191.478 50.45 192.505 50.45C193.438 50.45 194.255 50.6367 194.955 51.01C195.655 51.3833 196.25 51.9433 196.74 52.69C197.23 53.4133 197.592 54.3117 197.825 55.385C198.058 56.4583 198.175 57.695 198.175 59.095V69H194.99V59.515C194.99 58.1383 194.862 56.995 194.605 56.085C194.348 55.1517 193.963 54.4633 193.45 54.02C192.96 53.5533 192.33 53.32 191.56 53.32C190.697 53.32 189.915 53.6233 189.215 54.23C188.538 54.8133 187.978 55.6417 187.535 56.715C187.115 57.765 186.835 58.9667 186.695 60.32V69H183.58V59.83C183.58 58.3833 183.452 57.1817 183.195 56.225C182.938 55.2683 182.553 54.545 182.04 54.055C181.55 53.565 180.908 53.32 180.115 53.32C179.182 53.32 178.377 53.6467 177.7 54.3C177.023 54.93 176.475 55.7817 176.055 56.855C175.658 57.9283 175.402 59.13 175.285 60.46V69H172.1Z" fill="black"/>
<path d="M34.8333 42.4167V45.3333L66.9167 57L93.1667 45.3333V42.4167L61.0833 33.6667L34.8333 42.4167Z" fill="#0069F5"/>
<path d="M40.6667 54.0833V66.5287C40.6667 71.2567 52.3362 77.8833 66.9167 77.4196C78.5833 77.0521 86.1258 71.6679 87.3333 67.3075C87.4053 67.0489 87.4412 66.7883 87.4412 66.5258V54.0833L66.9167 62.8333L52.3333 57.9712V67.3425L49.4167 66.2808V57L40.6667 54.0833Z" fill="#0069F5"/>
<rect x="1404" y="29" width="135" height="56" rx="16" fill="white" stroke="#0069F5" stroke-width="2"/>
<path d="M1440.05 67V50.5H1442.78V67H1440.05ZM1440.78 67V64.65H1450.23V67H1440.78ZM1458.73 67.325C1457.48 67.325 1456.37 67.0583 1455.4 66.525C1454.44 65.9917 1453.68 65.2167 1453.13 64.2C1452.59 63.1833 1452.33 61.9333 1452.33 60.45C1452.33 58.9333 1452.61 57.675 1453.18 56.675C1453.74 55.675 1454.5 54.925 1455.45 54.425C1456.42 53.925 1457.5 53.675 1458.7 53.675C1459.94 53.675 1461.04 53.9333 1462 54.45C1462.97 54.9667 1463.73 55.7333 1464.28 56.75C1464.84 57.7667 1465.13 59.0333 1465.13 60.55C1465.13 62.05 1464.84 63.3083 1464.28 64.325C1463.73 65.325 1462.97 66.075 1462 66.575C1461.04 67.075 1459.94 67.325 1458.73 67.325ZM1458.83 65.175C1459.58 65.175 1460.22 65 1460.75 64.65C1461.29 64.3 1461.69 63.7833 1461.98 63.1C1462.26 62.4167 1462.4 61.6 1462.4 60.65C1462.4 59.6667 1462.25 58.825 1461.95 58.125C1461.65 57.4083 1461.22 56.8583 1460.65 56.475C1460.1 56.0917 1459.43 55.9 1458.63 55.9C1457.91 55.9 1457.28 56.075 1456.73 56.425C1456.19 56.7583 1455.79 57.2667 1455.5 57.95C1455.22 58.6167 1455.08 59.4333 1455.08 60.4C1455.08 61.9167 1455.41 63.0917 1456.08 63.925C1456.74 64.7583 1457.66 65.175 1458.83 65.175ZM1473.84 71.45C1472.44 71.45 1471.29 71.3417 1470.39 71.125C1469.51 70.9083 1468.86 70.5833 1468.44 70.15C1468.02 69.7167 1467.81 69.1833 1467.81 68.55C1467.81 67.7833 1468.11 67.1583 1468.71 66.675C1469.31 66.175 1470.22 65.8583 1471.44 65.725V65.225C1470.54 65.2417 1469.86 65.15 1469.39 64.95C1468.94 64.7333 1468.71 64.4 1468.71 63.95C1468.71 63.4833 1468.94 63.0917 1469.39 62.775C1469.86 62.4417 1470.61 62.15 1471.64 61.9V61.425C1470.62 61.3917 1469.84 61.075 1469.29 60.475C1468.74 59.875 1468.46 59.1083 1468.46 58.175C1468.46 57.325 1468.69 56.5833 1469.14 55.95C1469.61 55.3 1470.28 54.8 1471.16 54.45C1472.06 54.0833 1473.15 53.9 1474.41 53.9H1480.69V56.1L1476.66 55.5V56C1477.66 56.1833 1478.41 56.5 1478.91 56.95C1479.41 57.4 1479.66 58.0083 1479.66 58.775C1479.66 59.4583 1479.45 60.0667 1479.01 60.6C1478.6 61.1333 1477.98 61.55 1477.16 61.85C1476.35 62.1333 1475.35 62.275 1474.16 62.275C1473.95 62.275 1473.71 62.2667 1473.46 62.25C1473.21 62.2333 1472.85 62.1917 1472.36 62.125C1471.96 62.375 1471.64 62.6083 1471.39 62.825C1471.16 63.0417 1471.04 63.2333 1471.04 63.4C1471.04 63.5667 1471.14 63.7 1471.34 63.8C1471.56 63.9 1471.82 63.9667 1472.14 64C1472.46 64.0333 1472.76 64.05 1473.04 64.05H1476.24C1476.57 64.05 1477 64.0833 1477.51 64.15C1478.03 64.2 1478.55 64.3333 1479.06 64.55C1479.58 64.7667 1480.01 65.1083 1480.36 65.575C1480.71 66.025 1480.89 66.6583 1480.89 67.475C1480.89 68.4083 1480.62 69.1667 1480.09 69.75C1479.56 70.3333 1478.76 70.7583 1477.71 71.025C1476.66 71.3083 1475.37 71.45 1473.84 71.45ZM1474.01 69.225C1475.08 69.225 1475.94 69.1583 1476.59 69.025C1477.24 68.9083 1477.71 68.7083 1478.01 68.425C1478.31 68.1417 1478.46 67.7833 1478.46 67.35C1478.46 66.95 1478.36 66.6417 1478.16 66.425C1477.96 66.1917 1477.71 66.0333 1477.41 65.95C1477.13 65.85 1476.84 65.7917 1476.54 65.775C1476.24 65.7583 1475.98 65.75 1475.76 65.75H1472.79C1471.91 65.9 1471.29 66.1583 1470.94 66.525C1470.59 66.875 1470.41 67.2667 1470.41 67.7C1470.41 68.1167 1470.56 68.4333 1470.86 68.65C1471.16 68.8833 1471.58 69.0333 1472.11 69.1C1472.66 69.1833 1473.3 69.225 1474.01 69.225ZM1474.19 60.675C1475.16 60.675 1475.88 60.4667 1476.36 60.05C1476.86 59.6167 1477.11 59.05 1477.11 58.35C1477.11 57.6 1476.86 56.9917 1476.36 56.525C1475.86 56.0417 1475.12 55.8 1474.14 55.8C1473.17 55.8 1472.43 56.0333 1471.91 56.5C1471.41 56.9667 1471.16 57.5583 1471.16 58.275C1471.16 58.7583 1471.28 59.1833 1471.51 59.55C1471.75 59.9 1472.08 60.175 1472.51 60.375C1472.96 60.575 1473.52 60.675 1474.19 60.675ZM1484.34 67V54H1487.04V67H1484.34ZM1485.69 51.825C1485.1 51.825 1484.66 51.7083 1484.36 51.475C1484.06 51.225 1483.91 50.8583 1483.91 50.375C1483.91 49.9083 1484.06 49.55 1484.36 49.3C1484.66 49.05 1485.1 48.925 1485.69 48.925C1486.29 48.925 1486.74 49.05 1487.04 49.3C1487.34 49.55 1487.49 49.9083 1487.49 50.375C1487.49 50.8583 1487.34 51.225 1487.04 51.475C1486.74 51.7083 1486.29 51.825 1485.69 51.825ZM1491.56 67V59V54H1493.91L1493.76 58.05H1494.18C1494.41 57.05 1494.72 56.2333 1495.11 55.6C1495.51 54.95 1496.01 54.4667 1496.61 54.15C1497.22 53.8333 1497.94 53.675 1498.76 53.675C1500.21 53.675 1501.31 54.1917 1502.06 55.225C1502.82 56.2583 1503.21 57.8333 1503.21 59.95V67H1500.46V60.225C1500.46 58.775 1500.24 57.7167 1499.81 57.05C1499.37 56.3667 1498.72 56.025 1497.86 56.025C1497.11 56.025 1496.46 56.2667 1495.93 56.75C1495.41 57.2167 1495.01 57.8333 1494.73 58.6C1494.45 59.3667 1494.29 60.2 1494.26 61.1V67H1491.56Z" fill="#0069F5"/>
<rect x="1553" y="29" width="165" height="56" rx="16" fill="#0069F5" stroke="white" stroke-width="2"/>
<path d="M1598 65.325C1596.92 65.325 1595.95 65.2167 1595.1 65C1594.27 64.7667 1593.56 64.4333 1592.98 64C1592.41 63.55 1591.98 63 1591.68 62.35C1591.39 61.6833 1591.26 60.9167 1591.28 60.05L1593.7 59.4C1593.67 60.2333 1593.83 60.925 1594.18 61.475C1594.53 62.025 1595.04 62.4417 1595.73 62.725C1596.43 62.9917 1597.23 63.125 1598.13 63.125C1599.01 63.125 1599.75 63.0167 1600.35 62.8C1600.95 62.5833 1601.4 62.2917 1601.7 61.925C1602.02 61.5417 1602.18 61.1083 1602.18 60.625C1602.18 60.075 1601.98 59.6417 1601.6 59.325C1601.23 58.9917 1600.74 58.7333 1600.13 58.55C1599.51 58.35 1598.82 58.1667 1598.05 58C1597.27 57.8333 1596.49 57.6417 1595.73 57.425C1594.96 57.2083 1594.26 56.925 1593.63 56.575C1593.01 56.2083 1592.51 55.7417 1592.13 55.175C1591.76 54.6083 1591.58 53.8917 1591.58 53.025C1591.58 52.025 1591.83 51.1667 1592.33 50.45C1592.83 49.7333 1593.53 49.175 1594.45 48.775C1595.38 48.375 1596.48 48.175 1597.75 48.175C1599.02 48.175 1600.13 48.375 1601.08 48.775C1602.04 49.1583 1602.8 49.725 1603.35 50.475C1603.92 51.2083 1604.21 52.1 1604.23 53.15L1601.73 53.8C1601.73 53.2333 1601.63 52.7333 1601.43 52.3C1601.24 51.8667 1600.98 51.5083 1600.63 51.225C1600.28 50.9417 1599.86 50.7333 1599.38 50.6C1598.89 50.45 1598.34 50.375 1597.73 50.375C1597.01 50.375 1596.38 50.4833 1595.85 50.7C1595.32 50.9 1594.9 51.1833 1594.6 51.55C1594.32 51.9 1594.18 52.3167 1594.18 52.8C1594.18 53.4 1594.38 53.875 1594.8 54.225C1595.23 54.5583 1595.8 54.8333 1596.5 55.05C1597.2 55.25 1597.95 55.4417 1598.75 55.625C1599.47 55.775 1600.18 55.9583 1600.88 56.175C1601.59 56.375 1602.24 56.65 1602.83 57C1603.43 57.35 1603.9 57.8083 1604.25 58.375C1604.62 58.9417 1604.8 59.6667 1604.8 60.55C1604.8 61.5167 1604.54 62.3583 1604.03 63.075C1603.53 63.7917 1602.78 64.35 1601.78 64.75C1600.78 65.1333 1599.52 65.325 1598 65.325ZM1608.64 65V52H1611.34V65H1608.64ZM1609.99 49.825C1609.41 49.825 1608.97 49.7083 1608.67 49.475C1608.37 49.225 1608.22 48.8583 1608.22 48.375C1608.22 47.9083 1608.37 47.55 1608.67 47.3C1608.97 47.05 1609.41 46.925 1609.99 46.925C1610.59 46.925 1611.04 47.05 1611.34 47.3C1611.64 47.55 1611.79 47.9083 1611.79 48.375C1611.79 48.8583 1611.64 49.225 1611.34 49.475C1611.04 49.7083 1610.59 49.825 1609.99 49.825ZM1620.81 69.45C1619.41 69.45 1618.26 69.3417 1617.36 69.125C1616.48 68.9083 1615.83 68.5833 1615.41 68.15C1614.99 67.7167 1614.79 67.1833 1614.79 66.55C1614.79 65.7833 1615.09 65.1583 1615.69 64.675C1616.29 64.175 1617.19 63.8583 1618.41 63.725V63.225C1617.51 63.2417 1616.83 63.15 1616.36 62.95C1615.91 62.7333 1615.69 62.4 1615.69 61.95C1615.69 61.4833 1615.91 61.0917 1616.36 60.775C1616.83 60.4417 1617.58 60.15 1618.61 59.9V59.425C1617.59 59.3917 1616.81 59.075 1616.26 58.475C1615.71 57.875 1615.44 57.1083 1615.44 56.175C1615.44 55.325 1615.66 54.5833 1616.11 53.95C1616.58 53.3 1617.25 52.8 1618.14 52.45C1619.04 52.0833 1620.12 51.9 1621.39 51.9H1627.66V54.1L1623.64 53.5V54C1624.64 54.1833 1625.39 54.5 1625.89 54.95C1626.39 55.4 1626.64 56.0083 1626.64 56.775C1626.64 57.4583 1626.42 58.0667 1625.99 58.6C1625.57 59.1333 1624.95 59.55 1624.14 59.85C1623.32 60.1333 1622.32 60.275 1621.14 60.275C1620.92 60.275 1620.69 60.2667 1620.44 60.25C1620.19 60.2333 1619.82 60.1917 1619.34 60.125C1618.94 60.375 1618.61 60.6083 1618.36 60.825C1618.13 61.0417 1618.01 61.2333 1618.01 61.4C1618.01 61.5667 1618.11 61.7 1618.31 61.8C1618.53 61.9 1618.79 61.9667 1619.11 62C1619.43 62.0333 1619.73 62.05 1620.01 62.05H1623.21C1623.54 62.05 1623.97 62.0833 1624.49 62.15C1625 62.2 1625.52 62.3333 1626.04 62.55C1626.55 62.7667 1626.99 63.1083 1627.34 63.575C1627.69 64.025 1627.86 64.6583 1627.86 65.475C1627.86 66.4083 1627.59 67.1667 1627.06 67.75C1626.53 68.3333 1625.74 68.7583 1624.69 69.025C1623.64 69.3083 1622.34 69.45 1620.81 69.45ZM1620.99 67.225C1622.05 67.225 1622.91 67.1583 1623.56 67.025C1624.21 66.9083 1624.69 66.7083 1624.99 66.425C1625.29 66.1417 1625.44 65.7833 1625.44 65.35C1625.44 64.95 1625.34 64.6417 1625.14 64.425C1624.94 64.1917 1624.69 64.0333 1624.39 63.95C1624.1 63.85 1623.81 63.7917 1623.51 63.775C1623.21 63.7583 1622.95 63.75 1622.74 63.75H1619.76C1618.88 63.9 1618.26 64.1583 1617.91 64.525C1617.56 64.875 1617.39 65.2667 1617.39 65.7C1617.39 66.1167 1617.54 66.4333 1617.84 66.65C1618.14 66.8833 1618.55 67.0333 1619.09 67.1C1619.64 67.1833 1620.27 67.225 1620.99 67.225ZM1621.16 58.675C1622.13 58.675 1622.85 58.4667 1623.34 58.05C1623.84 57.6167 1624.09 57.05 1624.09 56.35C1624.09 55.6 1623.84 54.9917 1623.34 54.525C1622.84 54.0417 1622.09 53.8 1621.11 53.8C1620.14 53.8 1619.4 54.0333 1618.89 54.5C1618.39 54.9667 1618.14 55.5583 1618.14 56.275C1618.14 56.7583 1618.25 57.1833 1618.49 57.55C1618.72 57.9 1619.05 58.175 1619.49 58.375C1619.94 58.575 1620.49 58.675 1621.16 58.675ZM1631.31 65V57V52H1633.66L1633.51 56.05H1633.93C1634.17 55.05 1634.47 54.2333 1634.86 53.6C1635.26 52.95 1635.76 52.4667 1636.36 52.15C1636.97 51.8333 1637.69 51.675 1638.51 51.675C1639.96 51.675 1641.06 52.1917 1641.81 53.225C1642.57 54.2583 1642.96 55.8333 1642.96 57.95V65H1640.21V58.225C1640.21 56.775 1639.99 55.7167 1639.56 55.05C1639.12 54.3667 1638.47 54.025 1637.61 54.025C1636.86 54.025 1636.22 54.2667 1635.68 54.75C1635.17 55.2167 1634.77 55.8333 1634.48 56.6C1634.2 57.3667 1634.04 58.2 1634.01 59.1V65H1631.31ZM1661.29 65.325C1660.34 65.325 1659.49 65.225 1658.74 65.025C1657.99 64.8417 1657.34 64.5583 1656.77 64.175C1656.2 63.7917 1655.73 63.3333 1655.34 62.8C1654.98 62.25 1654.69 61.6333 1654.49 60.95C1654.31 60.25 1654.22 59.4833 1654.22 58.65V48.5H1656.97V58.55C1656.97 59.5167 1657.13 60.3167 1657.44 60.95C1657.78 61.5833 1658.26 62.0667 1658.89 62.4C1659.53 62.7167 1660.32 62.875 1661.27 62.875C1662.25 62.875 1663.06 62.7167 1663.69 62.4C1664.33 62.0833 1664.8 61.6083 1665.12 60.975C1665.44 60.325 1665.59 59.5167 1665.59 58.55V48.5H1668.32V58.65C1668.32 60.7833 1667.72 62.4333 1666.52 63.6C1665.34 64.75 1663.59 65.325 1661.29 65.325ZM1672.79 69.1V58.55V52H1675.14L1675.07 55.425L1675.47 55.45C1675.65 54.6667 1675.92 54 1676.29 53.45C1676.66 52.8833 1677.12 52.45 1677.69 52.15C1678.27 51.8333 1678.97 51.675 1679.77 51.675C1680.93 51.675 1681.92 51.9667 1682.72 52.55C1683.53 53.1333 1684.14 53.9417 1684.54 54.975C1684.96 56.0083 1685.17 57.1917 1685.17 58.525C1685.17 59.825 1684.97 60.9917 1684.57 62.025C1684.18 63.0417 1683.6 63.85 1682.82 64.45C1682.03 65.0333 1681.07 65.325 1679.94 65.325C1679.06 65.325 1678.32 65.15 1677.74 64.8C1677.16 64.4333 1676.68 63.9583 1676.32 63.375C1675.95 62.775 1675.67 62.1167 1675.47 61.4H1675.02C1675.12 61.85 1675.2 62.3167 1675.27 62.8C1675.33 63.2667 1675.39 63.7333 1675.44 64.2C1675.49 64.6667 1675.52 65.1083 1675.52 65.525V69.1H1672.79ZM1679.14 63.05C1679.82 63.05 1680.4 62.8583 1680.87 62.475C1681.35 62.075 1681.72 61.5333 1681.97 60.85C1682.22 60.1667 1682.34 59.3833 1682.34 58.5C1682.34 57.5833 1682.21 56.7917 1681.94 56.125C1681.69 55.4583 1681.32 54.9417 1680.84 54.575C1680.36 54.1917 1679.78 54 1679.12 54C1678.53 54 1678.02 54.1333 1677.57 54.4C1677.12 54.6667 1676.73 55.0167 1676.42 55.45C1676.12 55.8667 1675.88 56.3333 1675.72 56.85C1675.57 57.35 1675.49 57.8417 1675.49 58.325V58.7C1675.49 59.0333 1675.54 59.3917 1675.64 59.775C1675.74 60.1583 1675.88 60.5417 1676.07 60.925C1676.27 61.3083 1676.51 61.6667 1676.79 62C1677.09 62.3167 1677.43 62.575 1677.82 62.775C1678.22 62.9583 1678.66 63.05 1679.14 63.05Z" fill="white"/>
<path d="M506.95 65V48.5H509.675V65H506.95ZM496.05 65V48.5H498.775V65H496.05ZM497.5 57.75V55.45H508.025V57.75H497.5ZM519.25 65.325C518 65.325 516.892 65.0583 515.925 64.525C514.959 63.9917 514.2 63.2167 513.65 62.2C513.117 61.1833 512.85 59.9333 512.85 58.45C512.85 56.9333 513.134 55.675 513.7 54.675C514.267 53.675 515.025 52.925 515.975 52.425C516.942 51.925 518.025 51.675 519.225 51.675C520.459 51.675 521.559 51.9333 522.525 52.45C523.492 52.9667 524.25 53.7333 524.8 54.75C525.367 55.7667 525.65 57.0333 525.65 58.55C525.65 60.05 525.367 61.3083 524.8 62.325C524.25 63.325 523.492 64.075 522.525 64.575C521.559 65.075 520.467 65.325 519.25 65.325ZM519.35 63.175C520.1 63.175 520.742 63 521.275 62.65C521.809 62.3 522.217 61.7833 522.5 61.1C522.784 60.4167 522.925 59.6 522.925 58.65C522.925 57.6667 522.775 56.825 522.475 56.125C522.175 55.4083 521.742 54.8583 521.175 54.475C520.625 54.0917 519.95 53.9 519.15 53.9C518.434 53.9 517.8 54.075 517.25 54.425C516.717 54.7583 516.309 55.2667 516.025 55.95C515.742 56.6167 515.6 57.4333 515.6 58.4C515.6 59.9167 515.934 61.0917 516.6 61.925C517.267 62.7583 518.184 63.175 519.35 63.175ZM528.663 65V56.85V52H530.963L530.813 56.05H531.263C531.48 55.0667 531.771 54.2583 532.138 53.625C532.521 52.975 532.98 52.4917 533.513 52.175C534.063 51.8417 534.696 51.675 535.413 51.675C536.213 51.675 536.871 51.8667 537.388 52.25C537.921 52.6333 538.321 53.15 538.588 53.8C538.871 54.45 539.021 55.1833 539.038 56H539.438C539.655 55.05 539.955 54.2583 540.338 53.625C540.738 52.975 541.23 52.4917 541.813 52.175C542.396 51.8417 543.046 51.675 543.763 51.675C544.446 51.675 545.046 51.8167 545.563 52.1C546.08 52.3667 546.513 52.7667 546.863 53.3C547.213 53.8333 547.471 54.5 547.638 55.3C547.821 56.0833 547.913 56.9917 547.913 58.025V65H545.188V58.375C545.188 57.4083 545.105 56.6083 544.938 55.975C544.771 55.3417 544.513 54.8667 544.163 54.55C543.813 54.2333 543.371 54.075 542.838 54.075C542.238 54.075 541.705 54.2833 541.238 54.7C540.788 55.1 540.421 55.6583 540.138 56.375C539.855 57.0917 539.68 57.9167 539.613 58.85V65H536.938V58.55C536.938 57.55 536.855 56.725 536.688 56.075C536.521 55.4083 536.263 54.9083 535.913 54.575C535.563 54.2417 535.121 54.075 534.588 54.075C533.955 54.075 533.405 54.2917 532.938 54.725C532.488 55.1417 532.13 55.7167 531.863 56.45C531.596 57.1833 531.43 58.0083 531.363 58.925V65H528.663ZM557.191 65.325C556.157 65.325 555.241 65.175 554.441 64.875C553.641 64.5583 552.966 64.1167 552.416 63.55C551.866 62.9667 551.449 62.275 551.166 61.475C550.882 60.6583 550.741 59.7417 550.741 58.725C550.741 57.7083 550.882 56.775 551.166 55.925C551.449 55.0583 551.849 54.3083 552.366 53.675C552.899 53.0417 553.549 52.55 554.316 52.2C555.099 51.85 555.982 51.675 556.966 51.675C557.882 51.675 558.699 51.825 559.416 52.125C560.149 52.425 560.766 52.8833 561.266 53.5C561.766 54.1 562.141 54.8583 562.391 55.775C562.641 56.675 562.732 57.7333 562.666 58.95L552.491 59.025V57.325L561.066 57.25L560.116 58.3C560.216 57.3 560.132 56.475 559.866 55.825C559.599 55.175 559.216 54.6917 558.716 54.375C558.216 54.0583 557.641 53.9 556.991 53.9C556.257 53.9 555.616 54.0917 555.066 54.475C554.532 54.8417 554.116 55.3833 553.816 56.1C553.516 56.8167 553.366 57.675 553.366 58.675C553.366 60.175 553.699 61.3083 554.366 62.075C555.032 62.825 555.982 63.2 557.216 63.2C557.732 63.2 558.174 63.1417 558.541 63.025C558.907 62.8917 559.216 62.725 559.466 62.525C559.716 62.3083 559.916 62.0583 560.066 61.775C560.232 61.475 560.366 61.1667 560.466 60.85L562.841 61.4C562.691 62.0167 562.457 62.5667 562.141 63.05C561.841 63.5167 561.457 63.925 560.991 64.275C560.524 64.6083 559.974 64.8667 559.341 65.05C558.724 65.2333 558.007 65.325 557.191 65.325Z" fill="black"/>
<path d="M621.225 65.325C620.008 65.325 618.917 65.1417 617.95 64.775C616.983 64.4083 616.167 63.875 615.5 63.175C614.833 62.4583 614.325 61.5833 613.975 60.55C613.625 59.5 613.45 58.3 613.45 56.95C613.45 55.5833 613.625 54.3583 613.975 53.275C614.342 52.1917 614.858 51.275 615.525 50.525C616.192 49.7583 616.992 49.175 617.925 48.775C618.858 48.375 619.9 48.175 621.05 48.175C621.933 48.175 622.75 48.3 623.5 48.55C624.25 48.7833 624.9 49.125 625.45 49.575C626 50.025 626.425 50.575 626.725 51.225C627.042 51.875 627.208 52.6083 627.225 53.425L624.65 54.075C624.667 53.275 624.5 52.6167 624.15 52.1C623.817 51.5667 623.367 51.1667 622.8 50.9C622.233 50.6333 621.625 50.5 620.975 50.5C620.375 50.5 619.792 50.6167 619.225 50.85C618.658 51.0833 618.15 51.4583 617.7 51.975C617.267 52.475 616.917 53.125 616.65 53.925C616.4 54.725 616.275 55.6917 616.275 56.825C616.275 58.275 616.483 59.4583 616.9 60.375C617.333 61.275 617.925 61.9417 618.675 62.375C619.442 62.7917 620.317 63 621.3 63C622.283 63 623.067 62.8083 623.65 62.425C624.233 62.0417 624.658 61.5333 624.925 60.9C625.208 60.25 625.367 59.5167 625.4 58.7L627.825 59.125C627.808 59.975 627.675 60.7833 627.425 61.55C627.175 62.3 626.783 62.9583 626.25 63.525C625.733 64.0917 625.058 64.5333 624.225 64.85C623.392 65.1667 622.392 65.325 621.225 65.325ZM636.298 65.325C635.048 65.325 633.94 65.0583 632.973 64.525C632.006 63.9917 631.248 63.2167 630.698 62.2C630.165 61.1833 629.898 59.9333 629.898 58.45C629.898 56.9333 630.181 55.675 630.748 54.675C631.315 53.675 632.073 52.925 633.023 52.425C633.99 51.925 635.073 51.675 636.273 51.675C637.506 51.675 638.606 51.9333 639.573 52.45C640.54 52.9667 641.298 53.7333 641.848 54.75C642.415 55.7667 642.698 57.0333 642.698 58.55C642.698 60.05 642.415 61.3083 641.848 62.325C641.298 63.325 640.54 64.075 639.573 64.575C638.606 65.075 637.515 65.325 636.298 65.325ZM636.398 63.175C637.148 63.175 637.79 63 638.323 62.65C638.856 62.3 639.265 61.7833 639.548 61.1C639.831 60.4167 639.973 59.6 639.973 58.65C639.973 57.6667 639.823 56.825 639.523 56.125C639.223 55.4083 638.79 54.8583 638.223 54.475C637.673 54.0917 636.998 53.9 636.198 53.9C635.481 53.9 634.848 54.075 634.298 54.425C633.765 54.7583 633.356 55.2667 633.073 55.95C632.79 56.6167 632.648 57.4333 632.648 58.4C632.648 59.9167 632.981 61.0917 633.648 61.925C634.315 62.7583 635.231 63.175 636.398 63.175ZM649.961 65.325C648.494 65.325 647.386 64.825 646.636 63.825C645.886 62.8083 645.511 61.2833 645.511 59.25V52H648.236V58.95C648.236 60.3167 648.444 61.3333 648.861 62C649.278 62.6667 649.936 63 650.836 63C651.336 63 651.778 62.875 652.161 62.625C652.544 62.375 652.878 62.025 653.161 61.575C653.461 61.125 653.694 60.6 653.861 60C654.044 59.3833 654.169 58.7083 654.236 57.975V52H656.936V59.6V65H654.636L654.761 60.875H654.336C654.119 61.9083 653.811 62.7583 653.411 63.425C653.028 64.075 652.544 64.5583 651.961 64.875C651.394 65.175 650.728 65.325 649.961 65.325ZM660.677 65V58.225V52H663.027L662.902 56.5H663.327C663.477 55.4833 663.71 54.6167 664.027 53.9C664.343 53.1833 664.777 52.6417 665.327 52.275C665.877 51.8917 666.56 51.7 667.377 51.7C667.543 51.7 667.727 51.7083 667.927 51.725C668.127 51.7417 668.352 51.7917 668.602 51.875L668.477 54.725C668.227 54.625 667.968 54.5583 667.702 54.525C667.435 54.475 667.193 54.45 666.977 54.45C666.31 54.45 665.743 54.6417 665.277 55.025C664.81 55.3917 664.418 55.9083 664.102 56.575C663.802 57.225 663.568 57.9833 663.402 58.85V65H660.677ZM675.856 65.325C674.956 65.325 674.156 65.2333 673.456 65.05C672.756 64.8667 672.156 64.6083 671.656 64.275C671.173 63.925 670.798 63.5083 670.531 63.025C670.265 62.5417 670.106 62.0167 670.056 61.45L672.256 60.725C672.256 61.2083 672.406 61.6417 672.706 62.025C673.006 62.4083 673.431 62.7083 673.981 62.925C674.548 63.125 675.223 63.225 676.006 63.225C676.923 63.225 677.631 63.075 678.131 62.775C678.631 62.475 678.881 62.0583 678.881 61.525C678.881 61.125 678.74 60.8083 678.456 60.575C678.19 60.3417 677.798 60.15 677.281 60C676.781 59.85 676.19 59.7083 675.506 59.575C674.89 59.4417 674.273 59.2917 673.656 59.125C673.056 58.9417 672.498 58.7083 671.981 58.425C671.481 58.1417 671.073 57.775 670.756 57.325C670.456 56.8583 670.306 56.275 670.306 55.575C670.306 54.775 670.515 54.0917 670.931 53.525C671.348 52.9417 671.948 52.4917 672.731 52.175C673.531 51.8417 674.481 51.675 675.581 51.675C676.648 51.675 677.565 51.8333 678.331 52.15C679.115 52.4667 679.74 52.9083 680.206 53.475C680.673 54.0417 680.956 54.7083 681.056 55.475L678.756 56.15C678.723 55.6333 678.565 55.2 678.281 54.85C678.015 54.5 677.648 54.2417 677.181 54.075C676.715 53.8917 676.165 53.8 675.531 53.8C674.698 53.8 674.04 53.95 673.556 54.25C673.09 54.55 672.856 54.9583 672.856 55.475C672.856 55.875 672.998 56.2 673.281 56.45C673.581 56.6833 673.981 56.875 674.481 57.025C674.998 57.1583 675.581 57.2917 676.231 57.425C676.898 57.5583 677.54 57.7083 678.156 57.875C678.773 58.0417 679.323 58.2667 679.806 58.55C680.306 58.8167 680.698 59.1833 680.981 59.65C681.281 60.1 681.431 60.675 681.431 61.375C681.431 62.225 681.198 62.95 680.731 63.55C680.281 64.1333 679.64 64.575 678.806 64.875C677.973 65.175 676.99 65.325 675.856 65.325ZM690.083 65.325C689.05 65.325 688.133 65.175 687.333 64.875C686.533 64.5583 685.858 64.1167 685.308 63.55C684.758 62.9667 684.342 62.275 684.058 61.475C683.775 60.6583 683.633 59.7417 683.633 58.725C683.633 57.7083 683.775 56.775 684.058 55.925C684.342 55.0583 684.742 54.3083 685.258 53.675C685.792 53.0417 686.442 52.55 687.208 52.2C687.992 51.85 688.875 51.675 689.858 51.675C690.775 51.675 691.592 51.825 692.308 52.125C693.042 52.425 693.658 52.8833 694.158 53.5C694.658 54.1 695.033 54.8583 695.283 55.775C695.533 56.675 695.625 57.7333 695.558 58.95L685.383 59.025V57.325L693.958 57.25L693.008 58.3C693.108 57.3 693.025 56.475 692.758 55.825C692.492 55.175 692.108 54.6917 691.608 54.375C691.108 54.0583 690.533 53.9 689.883 53.9C689.15 53.9 688.508 54.0917 687.958 54.475C687.425 54.8417 687.008 55.3833 686.708 56.1C686.408 56.8167 686.258 57.675 686.258 58.675C686.258 60.175 686.592 61.3083 687.258 62.075C687.925 62.825 688.875 63.2 690.108 63.2C690.625 63.2 691.067 63.1417 691.433 63.025C691.8 62.8917 692.108 62.725 692.358 62.525C692.608 62.3083 692.808 62.0583 692.958 61.775C693.125 61.475 693.258 61.1667 693.358 60.85L695.733 61.4C695.583 62.0167 695.35 62.5667 695.033 63.05C694.733 63.5167 694.35 63.925 693.883 64.275C693.417 64.6083 692.867 64.8667 692.233 65.05C691.617 65.2333 690.9 65.325 690.083 65.325ZM703.737 65.325C702.837 65.325 702.037 65.2333 701.337 65.05C700.637 64.8667 700.037 64.6083 699.537 64.275C699.054 63.925 698.679 63.5083 698.412 63.025C698.145 62.5417 697.987 62.0167 697.937 61.45L700.137 60.725C700.137 61.2083 700.287 61.6417 700.587 62.025C700.887 62.4083 701.312 62.7083 701.862 62.925C702.429 63.125 703.104 63.225 703.887 63.225C704.804 63.225 705.512 63.075 706.012 62.775C706.512 62.475 706.762 62.0583 706.762 61.525C706.762 61.125 706.62 60.8083 706.337 60.575C706.07 60.3417 705.679 60.15 705.162 60C704.662 59.85 704.07 59.7083 703.387 59.575C702.77 59.4417 702.154 59.2917 701.537 59.125C700.937 58.9417 700.379 58.7083 699.862 58.425C699.362 58.1417 698.954 57.775 698.637 57.325C698.337 56.8583 698.187 56.275 698.187 55.575C698.187 54.775 698.395 54.0917 698.812 53.525C699.229 52.9417 699.829 52.4917 700.612 52.175C701.412 51.8417 702.362 51.675 703.462 51.675C704.529 51.675 705.445 51.8333 706.212 52.15C706.995 52.4667 707.62 52.9083 708.087 53.475C708.554 54.0417 708.837 54.7083 708.937 55.475L706.637 56.15C706.604 55.6333 706.445 55.2 706.162 54.85C705.895 54.5 705.529 54.2417 705.062 54.075C704.595 53.8917 704.045 53.8 703.412 53.8C702.579 53.8 701.92 53.95 701.437 54.25C700.97 54.55 700.737 54.9583 700.737 55.475C700.737 55.875 700.879 56.2 701.162 56.45C701.462 56.6833 701.862 56.875 702.362 57.025C702.879 57.1583 703.462 57.2917 704.112 57.425C704.779 57.5583 705.42 57.7083 706.037 57.875C706.654 58.0417 707.204 58.2667 707.687 58.55C708.187 58.8167 708.579 59.1833 708.862 59.65C709.162 60.1 709.312 60.675 709.312 61.375C709.312 62.225 709.079 62.95 708.612 63.55C708.162 64.1333 707.52 64.575 706.687 64.875C705.854 65.175 704.87 65.325 703.737 65.325Z" fill="black"/>
<path d="M761.7 60.075V57.85H765.675C767.125 57.85 768.208 57.5667 768.925 57C769.658 56.4333 770.025 55.5 770.025 54.2C770.025 53.0333 769.683 52.1583 769 51.575C768.333 50.9917 767.3 50.7 765.9 50.7H761.7V48.5H765.95C767.033 48.5 767.992 48.625 768.825 48.875C769.675 49.125 770.392 49.4917 770.975 49.975C771.575 50.4583 772.025 51.0667 772.325 51.8C772.642 52.5167 772.8 53.35 772.8 54.3C772.8 55.55 772.517 56.6083 771.95 57.475C771.383 58.325 770.542 58.975 769.425 59.425C768.325 59.8583 766.958 60.075 765.325 60.075H761.7ZM760.05 65V48.5H762.775V65H760.05ZM778.451 65.325C777.735 65.325 777.093 65.1917 776.526 64.925C775.96 64.6417 775.51 64.225 775.176 63.675C774.86 63.125 774.701 62.4417 774.701 61.625C774.701 60.975 774.818 60.4167 775.051 59.95C775.301 59.4667 775.668 59.0667 776.151 58.75C776.651 58.4167 777.285 58.15 778.051 57.95C778.818 57.7333 779.726 57.55 780.776 57.4C781.36 57.3167 781.835 57.2333 782.201 57.15C782.585 57.0667 782.86 56.9333 783.026 56.75C783.21 56.5667 783.301 56.2917 783.301 55.925C783.301 55.3583 783.101 54.875 782.701 54.475C782.318 54.0583 781.693 53.85 780.826 53.85C780.343 53.85 779.86 53.9333 779.376 54.1C778.91 54.2667 778.501 54.5417 778.151 54.925C777.818 55.2917 777.593 55.7917 777.476 56.425L775.026 55.65C775.176 55.0167 775.418 54.4583 775.751 53.975C776.085 53.475 776.501 53.0583 777.001 52.725C777.501 52.375 778.076 52.1167 778.726 51.95C779.393 51.7667 780.118 51.675 780.901 51.675C782.051 51.675 783.001 51.8667 783.751 52.25C784.501 52.6333 785.06 53.225 785.426 54.025C785.81 54.8083 786.001 55.8167 786.001 57.05V59.7C786.001 60.25 786.01 60.8333 786.026 61.45C786.06 62.05 786.093 62.6583 786.126 63.275C786.176 63.875 786.235 64.45 786.301 65H783.826C783.776 64.5 783.726 63.9833 783.676 63.45C783.643 62.9167 783.61 62.375 783.576 61.825H783.201C782.968 62.4583 782.635 63.0417 782.201 63.575C781.785 64.1083 781.26 64.5333 780.626 64.85C780.01 65.1667 779.285 65.325 778.451 65.325ZM779.401 63.225C779.751 63.225 780.101 63.1667 780.451 63.05C780.818 62.9333 781.176 62.7583 781.526 62.525C781.893 62.275 782.226 61.9583 782.526 61.575C782.843 61.1917 783.118 60.7333 783.351 60.2L783.326 57.85L783.976 57.975C783.693 58.225 783.335 58.4167 782.901 58.55C782.485 58.6833 782.026 58.7917 781.526 58.875C781.026 58.9417 780.526 59.025 780.026 59.125C779.543 59.2083 779.093 59.3333 778.676 59.5C778.276 59.65 777.951 59.8667 777.701 60.15C777.468 60.4333 777.351 60.825 777.351 61.325C777.351 61.9417 777.543 62.4167 777.926 62.75C778.31 63.0667 778.801 63.225 779.401 63.225ZM794.561 65.325C793.661 65.325 792.861 65.2333 792.161 65.05C791.461 64.8667 790.861 64.6083 790.361 64.275C789.878 63.925 789.503 63.5083 789.236 63.025C788.97 62.5417 788.811 62.0167 788.761 61.45L790.961 60.725C790.961 61.2083 791.111 61.6417 791.411 62.025C791.711 62.4083 792.136 62.7083 792.686 62.925C793.253 63.125 793.928 63.225 794.711 63.225C795.628 63.225 796.336 63.075 796.836 62.775C797.336 62.475 797.586 62.0583 797.586 61.525C797.586 61.125 797.445 60.8083 797.161 60.575C796.895 60.3417 796.503 60.15 795.986 60C795.486 59.85 794.895 59.7083 794.211 59.575C793.595 59.4417 792.978 59.2917 792.361 59.125C791.761 58.9417 791.203 58.7083 790.686 58.425C790.186 58.1417 789.778 57.775 789.461 57.325C789.161 56.8583 789.011 56.275 789.011 55.575C789.011 54.775 789.22 54.0917 789.636 53.525C790.053 52.9417 790.653 52.4917 791.436 52.175C792.236 51.8417 793.186 51.675 794.286 51.675C795.353 51.675 796.27 51.8333 797.036 52.15C797.82 52.4667 798.445 52.9083 798.911 53.475C799.378 54.0417 799.661 54.7083 799.761 55.475L797.461 56.15C797.428 55.6333 797.27 55.2 796.986 54.85C796.72 54.5 796.353 54.2417 795.886 54.075C795.42 53.8917 794.87 53.8 794.236 53.8C793.403 53.8 792.745 53.95 792.261 54.25C791.795 54.55 791.561 54.9583 791.561 55.475C791.561 55.875 791.703 56.2 791.986 56.45C792.286 56.6833 792.686 56.875 793.186 57.025C793.703 57.1583 794.286 57.2917 794.936 57.425C795.603 57.5583 796.245 57.7083 796.861 57.875C797.478 58.0417 798.028 58.2667 798.511 58.55C799.011 58.8167 799.403 59.1833 799.686 59.65C799.986 60.1 800.136 60.675 800.136 61.375C800.136 62.225 799.903 62.95 799.436 63.55C798.986 64.1333 798.345 64.575 797.511 64.875C796.678 65.175 795.695 65.325 794.561 65.325ZM807.29 65.275C806.007 65.275 805.049 64.925 804.415 64.225C803.799 63.525 803.49 62.45 803.49 61V54.225H801.565L801.615 52H802.865C803.299 52 803.624 51.9333 803.84 51.8C804.057 51.65 804.19 51.3917 804.24 51.025L804.49 49.1H806.115V52H809.69V54.275H806.115V60.925C806.115 61.575 806.265 62.0417 806.565 62.325C806.865 62.6083 807.307 62.75 807.89 62.75C808.207 62.75 808.524 62.7167 808.84 62.65C809.174 62.5667 809.49 62.4167 809.79 62.2V64.825C809.29 64.9917 808.832 65.1083 808.415 65.175C807.999 65.2417 807.624 65.275 807.29 65.275ZM833.14 68.55C832.04 68.75 831.09 68.875 830.29 68.925C829.506 68.975 828.798 68.975 828.165 68.925C827.548 68.875 826.94 68.7917 826.34 68.675C825.74 68.575 825.081 68.4667 824.365 68.35C823.648 68.25 822.815 68.1667 821.865 68.1C820.915 68.05 819.756 68.05 818.39 68.1V65.75C818.94 65.7667 819.523 65.7667 820.14 65.75C820.773 65.75 821.406 65.7167 822.04 65.65C822.673 65.6 823.298 65.5167 823.915 65.4C824.548 65.3 825.148 65.1667 825.715 65C826.281 64.8167 826.806 64.6 827.29 64.35V64.025C826.123 64.3583 825.056 64.5 824.09 64.45C823.14 64.4 822.298 64.1833 821.565 63.8C820.831 63.4 820.215 62.8583 819.715 62.175C819.231 61.475 818.856 60.6667 818.59 59.75C818.34 58.8167 818.215 57.8 818.215 56.7C818.215 55.45 818.373 54.3083 818.69 53.275C819.023 52.2417 819.506 51.3417 820.14 50.575C820.79 49.8083 821.581 49.2167 822.515 48.8C823.448 48.3833 824.531 48.175 825.765 48.175C827.315 48.175 828.648 48.5167 829.765 49.2C830.898 49.8667 831.765 50.8417 832.365 52.125C832.981 53.4083 833.29 54.95 833.29 56.75C833.29 58.1667 833.098 59.3917 832.715 60.425C832.348 61.4583 831.798 62.3417 831.065 63.075C830.331 63.7917 829.423 64.3917 828.34 64.875C827.273 65.3417 826.04 65.7333 824.64 66.05V66.35C825.456 66.4333 826.206 66.5083 826.89 66.575C827.573 66.6417 828.231 66.675 828.865 66.675C829.515 66.6917 830.181 66.6583 830.865 66.575C831.548 66.5083 832.306 66.3917 833.14 66.225V68.55ZM825.815 63.05C826.848 63.05 827.715 62.8083 828.415 62.325C829.115 61.8417 829.64 61.1417 829.99 60.225C830.34 59.3083 830.515 58.1833 830.515 56.85C830.515 55.4667 830.323 54.3083 829.94 53.375C829.573 52.425 829.031 51.7083 828.315 51.225C827.615 50.7417 826.748 50.5 825.715 50.5C824.698 50.5 823.831 50.7417 823.115 51.225C822.415 51.7083 821.881 52.4167 821.515 53.35C821.165 54.2833 820.99 55.4333 820.99 56.8C820.99 58.1667 821.173 59.3167 821.54 60.25C821.923 61.1833 822.473 61.8833 823.19 62.35C823.906 62.8167 824.781 63.05 825.815 63.05ZM840.932 65.325C839.465 65.325 838.357 64.825 837.607 63.825C836.857 62.8083 836.482 61.2833 836.482 59.25V52H839.207V58.95C839.207 60.3167 839.415 61.3333 839.832 62C840.248 62.6667 840.907 63 841.807 63C842.307 63 842.748 62.875 843.132 62.625C843.515 62.375 843.848 62.025 844.132 61.575C844.432 61.125 844.665 60.6 844.832 60C845.015 59.3833 845.14 58.7083 845.207 57.975V52H847.907V59.6V65H845.607L845.732 60.875H845.307C845.09 61.9083 844.782 62.7583 844.382 63.425C843.998 64.075 843.515 64.5583 842.932 64.875C842.365 65.175 841.698 65.325 840.932 65.325ZM857.372 65.325C856.339 65.325 855.422 65.175 854.622 64.875C853.822 64.5583 853.147 64.1167 852.597 63.55C852.047 62.9667 851.631 62.275 851.347 61.475C851.064 60.6583 850.922 59.7417 850.922 58.725C850.922 57.7083 851.064 56.775 851.347 55.925C851.631 55.0583 852.031 54.3083 852.547 53.675C853.081 53.0417 853.731 52.55 854.497 52.2C855.281 51.85 856.164 51.675 857.147 51.675C858.064 51.675 858.881 51.825 859.597 52.125C860.331 52.425 860.947 52.8833 861.447 53.5C861.947 54.1 862.322 54.8583 862.572 55.775C862.822 56.675 862.914 57.7333 862.847 58.95L852.672 59.025V57.325L861.247 57.25L860.297 58.3C860.397 57.3 860.314 56.475 860.047 55.825C859.781 55.175 859.397 54.6917 858.897 54.375C858.397 54.0583 857.822 53.9 857.172 53.9C856.439 53.9 855.797 54.0917 855.247 54.475C854.714 54.8417 854.297 55.3833 853.997 56.1C853.697 56.8167 853.547 57.675 853.547 58.675C853.547 60.175 853.881 61.3083 854.547 62.075C855.214 62.825 856.164 63.2 857.397 63.2C857.914 63.2 858.356 63.1417 858.722 63.025C859.089 62.8917 859.397 62.725 859.647 62.525C859.897 62.3083 860.097 62.0583 860.247 61.775C860.414 61.475 860.547 61.1667 860.647 60.85L863.022 61.4C862.872 62.0167 862.639 62.5667 862.322 63.05C862.022 63.5167 861.639 63.925 861.172 64.275C860.706 64.6083 860.156 64.8667 859.522 65.05C858.906 65.2333 858.189 65.325 857.372 65.325ZM871.026 65.325C870.126 65.325 869.326 65.2333 868.626 65.05C867.926 64.8667 867.326 64.6083 866.826 64.275C866.343 63.925 865.968 63.5083 865.701 63.025C865.435 62.5417 865.276 62.0167 865.226 61.45L867.426 60.725C867.426 61.2083 867.576 61.6417 867.876 62.025C868.176 62.4083 868.601 62.7083 869.151 62.925C869.718 63.125 870.393 63.225 871.176 63.225C872.093 63.225 872.801 63.075 873.301 62.775C873.801 62.475 874.051 62.0583 874.051 61.525C874.051 61.125 873.91 60.8083 873.626 60.575C873.36 60.3417 872.968 60.15 872.451 60C871.951 59.85 871.36 59.7083 870.676 59.575C870.06 59.4417 869.443 59.2917 868.826 59.125C868.226 58.9417 867.668 58.7083 867.151 58.425C866.651 58.1417 866.243 57.775 865.926 57.325C865.626 56.8583 865.476 56.275 865.476 55.575C865.476 54.775 865.685 54.0917 866.101 53.525C866.518 52.9417 867.118 52.4917 867.901 52.175C868.701 51.8417 869.651 51.675 870.751 51.675C871.818 51.675 872.735 51.8333 873.501 52.15C874.285 52.4667 874.91 52.9083 875.376 53.475C875.843 54.0417 876.126 54.7083 876.226 55.475L873.926 56.15C873.893 55.6333 873.735 55.2 873.451 54.85C873.185 54.5 872.818 54.2417 872.351 54.075C871.885 53.8917 871.335 53.8 870.701 53.8C869.868 53.8 869.21 53.95 868.726 54.25C868.26 54.55 868.026 54.9583 868.026 55.475C868.026 55.875 868.168 56.2 868.451 56.45C868.751 56.6833 869.151 56.875 869.651 57.025C870.168 57.1583 870.751 57.2917 871.401 57.425C872.068 57.5583 872.71 57.7083 873.326 57.875C873.943 58.0417 874.493 58.2667 874.976 58.55C875.476 58.8167 875.868 59.1833 876.151 59.65C876.451 60.1 876.601 60.675 876.601 61.375C876.601 62.225 876.368 62.95 875.901 63.55C875.451 64.1333 874.81 64.575 873.976 64.875C873.143 65.175 872.16 65.325 871.026 65.325ZM883.755 65.275C882.472 65.275 881.513 64.925 880.88 64.225C880.263 63.525 879.955 62.45 879.955 61V54.225H878.03L878.08 52H879.33C879.763 52 880.088 51.9333 880.305 51.8C880.522 51.65 880.655 51.3917 880.705 51.025L880.955 49.1H882.58V52H886.155V54.275H882.58V60.925C882.58 61.575 882.73 62.0417 883.03 62.325C883.33 62.6083 883.772 62.75 884.355 62.75C884.672 62.75 884.988 62.7167 885.305 62.65C885.638 62.5667 885.955 62.4167 886.255 62.2V64.825C885.755 64.9917 885.297 65.1083 884.88 65.175C884.463 65.2417 884.088 65.275 883.755 65.275ZM888.952 65V52H891.652V65H888.952ZM890.302 49.825C889.719 49.825 889.277 49.7083 888.977 49.475C888.677 49.225 888.527 48.8583 888.527 48.375C888.527 47.9083 888.677 47.55 888.977 47.3C889.277 47.05 889.719 46.925 890.302 46.925C890.902 46.925 891.352 47.05 891.652 47.3C891.952 47.55 892.102 47.9083 892.102 48.375C892.102 48.8583 891.952 49.225 891.652 49.475C891.352 49.7083 890.902 49.825 890.302 49.825ZM901.097 65.325C899.847 65.325 898.739 65.0583 897.772 64.525C896.805 63.9917 896.047 63.2167 895.497 62.2C894.964 61.1833 894.697 59.9333 894.697 58.45C894.697 56.9333 894.98 55.675 895.547 54.675C896.114 53.675 896.872 52.925 897.822 52.425C898.789 51.925 899.872 51.675 901.072 51.675C902.305 51.675 903.405 51.9333 904.372 52.45C905.339 52.9667 906.097 53.7333 906.647 54.75C907.214 55.7667 907.497 57.0333 907.497 58.55C907.497 60.05 907.214 61.3083 906.647 62.325C906.097 63.325 905.339 64.075 904.372 64.575C903.405 65.075 902.314 65.325 901.097 65.325ZM901.197 63.175C901.947 63.175 902.589 63 903.122 62.65C903.655 62.3 904.064 61.7833 904.347 61.1C904.63 60.4167 904.772 59.6 904.772 58.65C904.772 57.6667 904.622 56.825 904.322 56.125C904.022 55.4083 903.589 54.8583 903.022 54.475C902.472 54.0917 901.797 53.9 900.997 53.9C900.28 53.9 899.647 54.075 899.097 54.425C898.564 54.7583 898.155 55.2667 897.872 55.95C897.589 56.6167 897.447 57.4333 897.447 58.4C897.447 59.9167 897.78 61.0917 898.447 61.925C899.114 62.7583 900.03 63.175 901.197 63.175ZM910.51 65V57V52H912.86L912.71 56.05H913.135C913.368 55.05 913.676 54.2333 914.06 53.6C914.46 52.95 914.96 52.4667 915.56 52.15C916.176 51.8333 916.893 51.675 917.71 51.675C919.16 51.675 920.26 52.1917 921.01 53.225C921.776 54.2583 922.16 55.8333 922.16 57.95V65H919.41V58.225C919.41 56.775 919.193 55.7167 918.76 55.05C918.326 54.3667 917.676 54.025 916.81 54.025C916.06 54.025 915.418 54.2667 914.885 54.75C914.368 55.2167 913.968 55.8333 913.685 56.6C913.401 57.3667 913.243 58.2 913.21 59.1V65H910.51Z" fill="black"/>
<path d="M975.05 65V48.5H981.1C981.967 48.5 982.75 48.5667 983.45 48.7C984.15 48.8333 984.775 49.0333 985.325 49.3C985.875 49.5667 986.342 49.9 986.725 50.3C987.108 50.6833 987.392 51.1333 987.575 51.65C987.775 52.15 987.875 52.7083 987.875 53.325C987.875 53.9083 987.783 54.4417 987.6 54.925C987.433 55.3917 987.167 55.8083 986.8 56.175C986.45 56.5417 986.008 56.8417 985.475 57.075C984.958 57.2917 984.35 57.4417 983.65 57.525V57.85C984.333 57.9333 984.908 58.1083 985.375 58.375C985.842 58.6417 986.233 59.0167 986.55 59.5C986.867 59.9833 987.133 60.6167 987.35 61.4L988.375 65H985.4L984.6 61.7C984.433 61.0333 984.183 60.5 983.85 60.1C983.517 59.6833 983.1 59.3833 982.6 59.2C982.1 59.0167 981.508 58.925 980.825 58.925H977.775V65H975.05ZM977.775 56.775H980.9C982.267 56.775 983.3 56.525 984 56.025C984.717 55.525 985.075 54.7583 985.075 53.725C985.075 52.6917 984.733 51.9333 984.05 51.45C983.383 50.95 982.35 50.7 980.95 50.7H977.775V56.775ZM997.055 65.325C996.022 65.325 995.105 65.175 994.305 64.875C993.505 64.5583 992.83 64.1167 992.28 63.55C991.73 62.9667 991.313 62.275 991.03 61.475C990.747 60.6583 990.605 59.7417 990.605 58.725C990.605 57.7083 990.747 56.775 991.03 55.925C991.313 55.0583 991.713 54.3083 992.23 53.675C992.763 53.0417 993.413 52.55 994.18 52.2C994.963 51.85 995.847 51.675 996.83 51.675C997.747 51.675 998.563 51.825 999.28 52.125C1000.01 52.425 1000.63 52.8833 1001.13 53.5C1001.63 54.1 1002.01 54.8583 1002.26 55.775C1002.51 56.675 1002.6 57.7333 1002.53 58.95L992.355 59.025V57.325L1000.93 57.25L999.98 58.3C1000.08 57.3 999.997 56.475 999.73 55.825C999.463 55.175 999.08 54.6917 998.58 54.375C998.08 54.0583 997.505 53.9 996.855 53.9C996.122 53.9 995.48 54.0917 994.93 54.475C994.397 54.8417 993.98 55.3833 993.68 56.1C993.38 56.8167 993.23 57.675 993.23 58.675C993.23 60.175 993.563 61.3083 994.23 62.075C994.897 62.825 995.847 63.2 997.08 63.2C997.597 63.2 998.038 63.1417 998.405 63.025C998.772 62.8917 999.08 62.725 999.33 62.525C999.58 62.3083 999.78 62.0583 999.93 61.775C1000.1 61.475 1000.23 61.1667 1000.33 60.85L1002.71 61.4C1002.56 62.0167 1002.32 62.5667 1002.01 63.05C1001.71 63.5167 1001.32 63.925 1000.86 64.275C1000.39 64.6083 999.838 64.8667 999.205 65.05C998.588 65.2333 997.872 65.325 997.055 65.325ZM1008.47 65L1003.92 52.025H1006.94L1010.19 62.775H1010.57L1013.84 52.025H1016.77L1012.22 65H1008.47ZM1019.04 65V52H1021.74V65H1019.04ZM1020.39 49.825C1019.81 49.825 1019.37 49.7083 1019.07 49.475C1018.77 49.225 1018.62 48.8583 1018.62 48.375C1018.62 47.9083 1018.77 47.55 1019.07 47.3C1019.37 47.05 1019.81 46.925 1020.39 46.925C1020.99 46.925 1021.44 47.05 1021.74 47.3C1022.04 47.55 1022.19 47.9083 1022.19 48.375C1022.19 48.8583 1022.04 49.225 1021.74 49.475C1021.44 49.7083 1020.99 49.825 1020.39 49.825ZM1031.23 65.325C1030.2 65.325 1029.28 65.175 1028.48 64.875C1027.68 64.5583 1027.01 64.1167 1026.46 63.55C1025.91 62.9667 1025.49 62.275 1025.21 61.475C1024.93 60.6583 1024.78 59.7417 1024.78 58.725C1024.78 57.7083 1024.93 56.775 1025.21 55.925C1025.49 55.0583 1025.89 54.3083 1026.41 53.675C1026.94 53.0417 1027.59 52.55 1028.36 52.2C1029.14 51.85 1030.03 51.675 1031.01 51.675C1031.93 51.675 1032.74 51.825 1033.46 52.125C1034.19 52.425 1034.81 52.8833 1035.31 53.5C1035.81 54.1 1036.18 54.8583 1036.43 55.775C1036.68 56.675 1036.78 57.7333 1036.71 58.95L1026.53 59.025V57.325L1035.11 57.25L1034.16 58.3C1034.26 57.3 1034.18 56.475 1033.91 55.825C1033.64 55.175 1033.26 54.6917 1032.76 54.375C1032.26 54.0583 1031.68 53.9 1031.03 53.9C1030.3 53.9 1029.66 54.0917 1029.11 54.475C1028.58 54.8417 1028.16 55.3833 1027.86 56.1C1027.56 56.8167 1027.41 57.675 1027.41 58.675C1027.41 60.175 1027.74 61.3083 1028.41 62.075C1029.08 62.825 1030.03 63.2 1031.26 63.2C1031.78 63.2 1032.22 63.1417 1032.58 63.025C1032.95 62.8917 1033.26 62.725 1033.51 62.525C1033.76 62.3083 1033.96 62.0583 1034.11 61.775C1034.28 61.475 1034.41 61.1667 1034.51 60.85L1036.88 61.4C1036.73 62.0167 1036.5 62.5667 1036.18 63.05C1035.88 63.5167 1035.5 63.925 1035.03 64.275C1034.57 64.6083 1034.02 64.8667 1033.38 65.05C1032.77 65.2333 1032.05 65.325 1031.23 65.325ZM1041.82 65L1038.44 52H1041.24L1043.57 62.75H1043.99L1046.54 52H1049.94L1052.54 62.75H1052.94L1055.24 52H1058.02L1054.62 65H1050.84L1048.37 54.275H1048.04L1045.59 65H1041.82ZM1065.4 65.325C1064.5 65.325 1063.7 65.2333 1063 65.05C1062.3 64.8667 1061.7 64.6083 1061.2 64.275C1060.71 63.925 1060.34 63.5083 1060.07 63.025C1059.8 62.5417 1059.65 62.0167 1059.6 61.45L1061.8 60.725C1061.8 61.2083 1061.95 61.6417 1062.25 62.025C1062.55 62.4083 1062.97 62.7083 1063.52 62.925C1064.09 63.125 1064.76 63.225 1065.55 63.225C1066.46 63.225 1067.17 63.075 1067.67 62.775C1068.17 62.475 1068.42 62.0583 1068.42 61.525C1068.42 61.125 1068.28 60.8083 1068 60.575C1067.73 60.3417 1067.34 60.15 1066.82 60C1066.32 59.85 1065.73 59.7083 1065.05 59.575C1064.43 59.4417 1063.81 59.2917 1063.2 59.125C1062.6 58.9417 1062.04 58.7083 1061.52 58.425C1061.02 58.1417 1060.61 57.775 1060.3 57.325C1060 56.8583 1059.85 56.275 1059.85 55.575C1059.85 54.775 1060.05 54.0917 1060.47 53.525C1060.89 52.9417 1061.49 52.4917 1062.27 52.175C1063.07 51.8417 1064.02 51.675 1065.12 51.675C1066.19 51.675 1067.1 51.8333 1067.87 52.15C1068.65 52.4667 1069.28 52.9083 1069.75 53.475C1070.21 54.0417 1070.5 54.7083 1070.6 55.475L1068.3 56.15C1068.26 55.6333 1068.1 55.2 1067.82 54.85C1067.55 54.5 1067.19 54.2417 1066.72 54.075C1066.25 53.8917 1065.7 53.8 1065.07 53.8C1064.24 53.8 1063.58 53.95 1063.1 54.25C1062.63 54.55 1062.4 54.9583 1062.4 55.475C1062.4 55.875 1062.54 56.2 1062.82 56.45C1063.12 56.6833 1063.52 56.875 1064.02 57.025C1064.54 57.1583 1065.12 57.2917 1065.77 57.425C1066.44 57.5583 1067.08 57.7083 1067.7 57.875C1068.31 58.0417 1068.86 58.2667 1069.35 58.55C1069.85 58.8167 1070.24 59.1833 1070.52 59.65C1070.82 60.1 1070.97 60.675 1070.97 61.375C1070.97 62.225 1070.74 62.95 1070.27 63.55C1069.82 64.1333 1069.18 64.575 1068.35 64.875C1067.51 65.175 1066.53 65.325 1065.4 65.325Z" fill="black"/>
<path d="M1123.65 65L1129.4 48.5H1133.38L1139.13 65H1136.18L1131.55 50.725H1131.23L1126.6 65H1123.65ZM1126.53 61.45V59.45H1136.6V61.45H1126.53ZM1148.7 65.325C1147.87 65.325 1147.15 65.1583 1146.55 64.825C1145.97 64.4917 1145.49 64.0333 1145.12 63.45C1144.76 62.8667 1144.48 62.1833 1144.3 61.4H1143.87L1143.95 65H1141.6V58.6V47.375H1144.32V51.5C1144.32 51.9167 1144.3 52.3667 1144.25 52.85C1144.2 53.3167 1144.13 53.8 1144.05 54.3C1143.98 54.7833 1143.91 55.2667 1143.82 55.75H1144.3C1144.5 55 1144.77 54.325 1145.12 53.725C1145.49 53.1083 1145.97 52.6167 1146.55 52.25C1147.13 51.8833 1147.86 51.7 1148.72 51.7C1149.81 51.7 1150.74 51.9917 1151.52 52.575C1152.31 53.1417 1152.91 53.9417 1153.32 54.975C1153.76 55.9917 1153.97 57.1833 1153.97 58.55C1153.97 59.8833 1153.77 61.0583 1153.35 62.075C1152.95 63.0917 1152.36 63.8917 1151.57 64.475C1150.79 65.0417 1149.83 65.325 1148.7 65.325ZM1147.92 63.025C1148.59 63.025 1149.17 62.8417 1149.65 62.475C1150.13 62.1083 1150.5 61.5917 1150.75 60.925C1151.02 60.2417 1151.15 59.45 1151.15 58.55C1151.15 57.6667 1151.02 56.8833 1150.77 56.2C1150.52 55.5167 1150.16 54.9833 1149.67 54.6C1149.21 54.2 1148.63 54 1147.95 54C1147.47 54 1147.02 54.1 1146.62 54.3C1146.24 54.4833 1145.9 54.7333 1145.6 55.05C1145.32 55.3667 1145.07 55.7167 1144.87 56.1C1144.69 56.4833 1144.55 56.875 1144.45 57.275C1144.35 57.675 1144.3 58.0417 1144.3 58.375V58.725C1144.3 59.175 1144.37 59.6583 1144.52 60.175C1144.69 60.675 1144.92 61.1417 1145.22 61.575C1145.54 62.0083 1145.92 62.3583 1146.37 62.625C1146.82 62.8917 1147.34 63.025 1147.92 63.025ZM1162.73 65.325C1161.48 65.325 1160.37 65.0583 1159.4 64.525C1158.44 63.9917 1157.68 63.2167 1157.13 62.2C1156.59 61.1833 1156.33 59.9333 1156.33 58.45C1156.33 56.9333 1156.61 55.675 1157.18 54.675C1157.74 53.675 1158.5 52.925 1159.45 52.425C1160.42 51.925 1161.5 51.675 1162.7 51.675C1163.94 51.675 1165.04 51.9333 1166 52.45C1166.97 52.9667 1167.73 53.7333 1168.28 54.75C1168.84 55.7667 1169.13 57.0333 1169.13 58.55C1169.13 60.05 1168.84 61.3083 1168.28 62.325C1167.73 63.325 1166.97 64.075 1166 64.575C1165.04 65.075 1163.94 65.325 1162.73 65.325ZM1162.83 63.175C1163.58 63.175 1164.22 63 1164.75 62.65C1165.29 62.3 1165.69 61.7833 1165.98 61.1C1166.26 60.4167 1166.4 59.6 1166.4 58.65C1166.4 57.6667 1166.25 56.825 1165.95 56.125C1165.65 55.4083 1165.22 54.8583 1164.65 54.475C1164.1 54.0917 1163.43 53.9 1162.63 53.9C1161.91 53.9 1161.28 54.075 1160.73 54.425C1160.19 54.7583 1159.79 55.2667 1159.5 55.95C1159.22 56.6167 1159.08 57.4333 1159.08 58.4C1159.08 59.9167 1159.41 61.0917 1160.08 61.925C1160.74 62.7583 1161.66 63.175 1162.83 63.175ZM1176.39 65.325C1174.92 65.325 1173.82 64.825 1173.07 63.825C1172.32 62.8083 1171.94 61.2833 1171.94 59.25V52H1174.67V58.95C1174.67 60.3167 1174.87 61.3333 1175.29 62C1175.71 62.6667 1176.37 63 1177.27 63C1177.77 63 1178.21 62.875 1178.59 62.625C1178.97 62.375 1179.31 62.025 1179.59 61.575C1179.89 61.125 1180.12 60.6 1180.29 60C1180.47 59.3833 1180.6 58.7083 1180.67 57.975V52H1183.37V59.6V65H1181.07L1181.19 60.875H1180.77C1180.55 61.9083 1180.24 62.7583 1179.84 63.425C1179.46 64.075 1178.97 64.5583 1178.39 64.875C1177.82 65.175 1177.16 65.325 1176.39 65.325ZM1191.43 65.275C1190.15 65.275 1189.19 64.925 1188.56 64.225C1187.94 63.525 1187.63 62.45 1187.63 61V54.225H1185.71L1185.76 52H1187.01C1187.44 52 1187.76 51.9333 1187.98 51.8C1188.2 51.65 1188.33 51.3917 1188.38 51.025L1188.63 49.1H1190.26V52H1193.83V54.275H1190.26V60.925C1190.26 61.575 1190.41 62.0417 1190.71 62.325C1191.01 62.6083 1191.45 62.75 1192.03 62.75C1192.35 62.75 1192.66 62.7167 1192.98 62.65C1193.31 62.5667 1193.63 62.4167 1193.93 62.2V64.825C1193.43 64.9917 1192.97 65.1083 1192.56 65.175C1192.14 65.2417 1191.76 65.275 1191.43 65.275ZM1209.91 65.325C1208.96 65.325 1208.11 65.225 1207.36 65.025C1206.61 64.8417 1205.95 64.5583 1205.38 64.175C1204.81 63.7917 1204.34 63.3333 1203.96 62.8C1203.59 62.25 1203.31 61.6333 1203.11 60.95C1202.92 60.25 1202.83 59.4833 1202.83 58.65V48.5H1205.58V58.55C1205.58 59.5167 1205.74 60.3167 1206.06 60.95C1206.39 61.5833 1206.87 62.0667 1207.51 62.4C1208.14 62.7167 1208.93 62.875 1209.88 62.875C1210.86 62.875 1211.67 62.7167 1212.31 62.4C1212.94 62.0833 1213.41 61.6083 1213.73 60.975C1214.05 60.325 1214.21 59.5167 1214.21 58.55V48.5H1216.93V58.65C1216.93 60.7833 1216.33 62.4333 1215.13 63.6C1213.95 64.75 1212.21 65.325 1209.91 65.325ZM1225.65 65.325C1224.75 65.325 1223.95 65.2333 1223.25 65.05C1222.55 64.8667 1221.95 64.6083 1221.45 64.275C1220.97 63.925 1220.59 63.5083 1220.33 63.025C1220.06 62.5417 1219.9 62.0167 1219.85 61.45L1222.05 60.725C1222.05 61.2083 1222.2 61.6417 1222.5 62.025C1222.8 62.4083 1223.23 62.7083 1223.78 62.925C1224.34 63.125 1225.02 63.225 1225.8 63.225C1226.72 63.225 1227.43 63.075 1227.93 62.775C1228.43 62.475 1228.68 62.0583 1228.68 61.525C1228.68 61.125 1228.53 60.8083 1228.25 60.575C1227.98 60.3417 1227.59 60.15 1227.08 60C1226.58 59.85 1225.98 59.7083 1225.3 59.575C1224.68 59.4417 1224.07 59.2917 1223.45 59.125C1222.85 58.9417 1222.29 58.7083 1221.78 58.425C1221.28 58.1417 1220.87 57.775 1220.55 57.325C1220.25 56.8583 1220.1 56.275 1220.1 55.575C1220.1 54.775 1220.31 54.0917 1220.73 53.525C1221.14 52.9417 1221.74 52.4917 1222.53 52.175C1223.33 51.8417 1224.28 51.675 1225.38 51.675C1226.44 51.675 1227.36 51.8333 1228.13 52.15C1228.91 52.4667 1229.53 52.9083 1230 53.475C1230.47 54.0417 1230.75 54.7083 1230.85 55.475L1228.55 56.15C1228.52 55.6333 1228.36 55.2 1228.08 54.85C1227.81 54.5 1227.44 54.2417 1226.98 54.075C1226.51 53.8917 1225.96 53.8 1225.33 53.8C1224.49 53.8 1223.83 53.95 1223.35 54.25C1222.88 54.55 1222.65 54.9583 1222.65 55.475C1222.65 55.875 1222.79 56.2 1223.08 56.45C1223.38 56.6833 1223.78 56.875 1224.28 57.025C1224.79 57.1583 1225.38 57.2917 1226.03 57.425C1226.69 57.5583 1227.33 57.7083 1227.95 57.875C1228.57 58.0417 1229.12 58.2667 1229.6 58.55C1230.1 58.8167 1230.49 59.1833 1230.78 59.65C1231.08 60.1 1231.23 60.675 1231.23 61.375C1231.23 62.225 1230.99 62.95 1230.53 63.55C1230.08 64.1333 1229.43 64.575 1228.6 64.875C1227.77 65.175 1226.78 65.325 1225.65 65.325Z" fill="black"/>
</svg>
