<svg width="315" height="103" viewBox="0 0 315 103" fill="none" xmlns="http://www.w3.org/2000/svg">
<rect x="0.75" y="0.75" width="313.5" height="101.5" rx="25.75" fill="white" stroke="#0069F5" stroke-width="1.5"/>
<path d="M70.236 56.196V53.348H75.324C77.18 53.348 78.5667 52.9853 79.484 52.26C80.4227 51.5347 80.892 50.34 80.892 48.676C80.892 47.1827 80.4547 46.0627 79.58 45.316C78.7267 44.5693 77.404 44.196 75.612 44.196H70.236V41.38H75.676C77.0627 41.38 78.2893 41.54 79.356 41.86C80.444 42.18 81.3613 42.6493 82.108 43.268C82.876 43.8867 83.452 44.6653 83.836 45.604C84.2413 46.5213 84.444 47.588 84.444 48.804C84.444 50.404 84.0813 51.7587 83.356 52.868C82.6307 53.956 81.5533 54.788 80.124 55.364C78.716 55.9187 76.9667 56.196 74.876 56.196H70.236ZM68.124 62.5V41.38H71.612V62.5H68.124ZM87.9313 62.5V53.828V45.86H90.9393L90.7793 51.62H91.3233C91.5153 50.3187 91.8139 49.2093 92.2193 48.292C92.6246 47.3747 93.1793 46.6813 93.8833 46.212C94.5873 45.7213 95.4619 45.476 96.5073 45.476C96.7206 45.476 96.9553 45.4867 97.2113 45.508C97.4673 45.5293 97.7553 45.5933 98.0753 45.7L97.9153 49.348C97.5953 49.22 97.2646 49.1347 96.9233 49.092C96.5819 49.028 96.2726 48.996 95.9953 48.996C95.1419 48.996 94.4166 49.2413 93.8193 49.732C93.2219 50.2013 92.7206 50.8627 92.3153 51.716C91.9313 52.548 91.6326 53.5187 91.4193 54.628V62.5H87.9313ZM104.678 62.916C103.76 62.916 102.939 62.7453 102.214 62.404C101.488 62.0413 100.912 61.508 100.486 60.804C100.08 60.1 99.8775 59.2253 99.8775 58.18C99.8775 57.348 100.027 56.6333 100.326 56.036C100.646 55.4173 101.115 54.9053 101.734 54.5C102.374 54.0733 103.184 53.732 104.166 53.476C105.147 53.1987 106.31 52.964 107.654 52.772C108.4 52.6653 109.008 52.5587 109.478 52.452C109.968 52.3453 110.32 52.1747 110.534 51.94C110.768 51.7053 110.886 51.3533 110.886 50.884C110.886 50.1587 110.63 49.54 110.118 49.028C109.627 48.4947 108.827 48.228 107.718 48.228C107.099 48.228 106.48 48.3347 105.862 48.548C105.264 48.7613 104.742 49.1133 104.294 49.604C103.867 50.0733 103.579 50.7133 103.43 51.524L100.294 50.532C100.486 49.7213 100.795 49.0067 101.222 48.388C101.648 47.748 102.182 47.2147 102.822 46.788C103.462 46.34 104.198 46.0093 105.03 45.796C105.883 45.5613 106.811 45.444 107.814 45.444C109.286 45.444 110.502 45.6893 111.462 46.18C112.422 46.6707 113.136 47.428 113.606 48.452C114.096 49.4547 114.342 50.7453 114.342 52.324V55.716C114.342 56.42 114.352 57.1667 114.374 57.956C114.416 58.724 114.459 59.5027 114.502 60.292C114.566 61.06 114.64 61.796 114.726 62.5H111.558C111.494 61.86 111.43 61.1987 111.366 60.516C111.323 59.8333 111.28 59.14 111.238 58.436H110.758C110.459 59.2467 110.032 59.9933 109.478 60.676C108.944 61.3587 108.272 61.9027 107.462 62.308C106.672 62.7133 105.744 62.916 104.678 62.916ZM105.894 60.228C106.342 60.228 106.79 60.1533 107.238 60.004C107.707 59.8547 108.166 59.6307 108.614 59.332C109.083 59.012 109.51 58.6067 109.894 58.116C110.299 57.6253 110.651 57.0387 110.95 56.356L110.918 53.348L111.75 53.508C111.387 53.828 110.928 54.0733 110.374 54.244C109.84 54.4147 109.254 54.5533 108.614 54.66C107.974 54.7453 107.334 54.852 106.694 54.98C106.075 55.0867 105.499 55.2467 104.966 55.46C104.454 55.652 104.038 55.9293 103.718 56.292C103.419 56.6547 103.27 57.156 103.27 57.796C103.27 58.5853 103.515 59.1933 104.006 59.62C104.496 60.0253 105.126 60.228 105.894 60.228ZM126.29 62.916C124.86 62.916 123.623 62.692 122.578 62.244C121.554 61.796 120.711 61.1773 120.05 60.388C119.388 59.5987 118.898 58.692 118.578 57.668C118.258 56.644 118.098 55.5453 118.098 54.372C118.098 53.1133 118.268 51.9507 118.61 50.884C118.951 49.796 119.452 48.8467 120.114 48.036C120.796 47.204 121.639 46.564 122.642 46.116C123.644 45.668 124.807 45.444 126.13 45.444C127.431 45.444 128.562 45.668 129.522 46.116C130.503 46.5427 131.303 47.1613 131.922 47.972C132.54 48.7613 132.946 49.6893 133.138 50.756L129.874 51.748C129.81 51.1293 129.628 50.5533 129.33 50.02C129.031 49.4867 128.604 49.0707 128.05 48.772C127.495 48.452 126.823 48.292 126.034 48.292C125.287 48.292 124.636 48.4413 124.082 48.74C123.527 49.0173 123.068 49.4333 122.706 49.988C122.343 50.5213 122.066 51.1507 121.874 51.876C121.703 52.6013 121.618 53.4013 121.618 54.276C121.618 55.4707 121.778 56.516 122.098 57.412C122.439 58.2867 122.962 58.9693 123.666 59.46C124.37 59.9293 125.255 60.164 126.322 60.164C127.218 60.164 127.954 60.004 128.53 59.684C129.106 59.364 129.554 58.9373 129.874 58.404C130.194 57.8493 130.407 57.2093 130.514 56.484L133.618 57.22C133.49 58.0947 133.234 58.8947 132.85 59.62C132.466 60.324 131.964 60.9213 131.346 61.412C130.727 61.9027 129.991 62.276 129.138 62.532C128.306 62.788 127.356 62.916 126.29 62.916ZM142.248 62.852C140.605 62.852 139.378 62.404 138.568 61.508C137.778 60.612 137.384 59.236 137.384 57.38V48.708H134.92L134.984 45.86H136.584C137.138 45.86 137.554 45.7747 137.832 45.604C138.109 45.412 138.28 45.0813 138.344 44.612L138.664 42.148H140.744V45.86H145.32V48.772H140.744V57.284C140.744 58.116 140.936 58.7133 141.32 59.076C141.704 59.4387 142.269 59.62 143.016 59.62C143.421 59.62 143.826 59.5773 144.232 59.492C144.658 59.3853 145.064 59.1933 145.448 58.916V62.276C144.808 62.4893 144.221 62.6387 143.688 62.724C143.154 62.8093 142.674 62.852 142.248 62.852ZM148.9 62.5V45.86H152.356V62.5H148.9ZM150.628 43.076C149.881 43.076 149.316 42.9267 148.932 42.628C148.548 42.308 148.356 41.8387 148.356 41.22C148.356 40.6227 148.548 40.164 148.932 39.844C149.316 39.524 149.881 39.364 150.628 39.364C151.396 39.364 151.972 39.524 152.356 39.844C152.74 40.164 152.932 40.6227 152.932 41.22C152.932 41.8387 152.74 42.308 152.356 42.628C151.972 42.9267 151.396 43.076 150.628 43.076ZM164.477 62.916C163.048 62.916 161.811 62.692 160.765 62.244C159.741 61.796 158.899 61.1773 158.237 60.388C157.576 59.5987 157.085 58.692 156.765 57.668C156.445 56.644 156.285 55.5453 156.285 54.372C156.285 53.1133 156.456 51.9507 156.797 50.884C157.139 49.796 157.64 48.8467 158.301 48.036C158.984 47.204 159.827 46.564 160.829 46.116C161.832 45.668 162.995 45.444 164.317 45.444C165.619 45.444 166.749 45.668 167.709 46.116C168.691 46.5427 169.491 47.1613 170.109 47.972C170.728 48.7613 171.133 49.6893 171.325 50.756L168.061 51.748C167.997 51.1293 167.816 50.5533 167.517 50.02C167.219 49.4867 166.792 49.0707 166.237 48.772C165.683 48.452 165.011 48.292 164.221 48.292C163.475 48.292 162.824 48.4413 162.269 48.74C161.715 49.0173 161.256 49.4333 160.893 49.988C160.531 50.5213 160.253 51.1507 160.061 51.876C159.891 52.6013 159.805 53.4013 159.805 54.276C159.805 55.4707 159.965 56.516 160.285 57.412C160.627 58.2867 161.149 58.9693 161.853 59.46C162.557 59.9293 163.443 60.164 164.509 60.164C165.405 60.164 166.141 60.004 166.717 59.684C167.293 59.364 167.741 58.9373 168.061 58.404C168.381 57.8493 168.595 57.2093 168.701 56.484L171.805 57.22C171.677 58.0947 171.421 58.8947 171.037 59.62C170.653 60.324 170.152 60.9213 169.533 61.412C168.915 61.9027 168.179 62.276 167.325 62.532C166.493 62.788 165.544 62.916 164.477 62.916ZM182.259 62.916C180.937 62.916 179.763 62.724 178.739 62.34C177.715 61.9347 176.851 61.3693 176.147 60.644C175.443 59.8973 174.91 59.012 174.547 57.988C174.185 56.9427 174.003 55.7693 174.003 54.468C174.003 53.1667 174.185 51.972 174.547 50.884C174.91 49.7747 175.422 48.8147 176.083 48.004C176.766 47.1933 177.598 46.564 178.579 46.116C179.582 45.668 180.713 45.444 181.971 45.444C183.145 45.444 184.19 45.636 185.107 46.02C186.046 46.404 186.835 46.9907 187.475 47.78C188.115 48.548 188.595 49.5187 188.915 50.692C189.235 51.844 189.353 53.1987 189.267 54.756L176.243 54.852V52.676L187.219 52.58L186.003 53.924C186.131 52.644 186.025 51.588 185.683 50.756C185.342 49.924 184.851 49.3053 184.211 48.9C183.571 48.4947 182.835 48.292 182.003 48.292C181.065 48.292 180.243 48.5373 179.539 49.028C178.857 49.4973 178.323 50.1907 177.939 51.108C177.555 52.0253 177.363 53.124 177.363 54.404C177.363 56.324 177.79 57.7747 178.643 58.756C179.497 59.716 180.713 60.196 182.291 60.196C182.953 60.196 183.518 60.1213 183.987 59.972C184.457 59.8013 184.851 59.588 185.171 59.332C185.491 59.0547 185.747 58.7347 185.939 58.372C186.153 57.988 186.323 57.5933 186.451 57.188L189.491 57.892C189.299 58.6813 189.001 59.3853 188.595 60.004C188.211 60.6013 187.721 61.124 187.123 61.572C186.526 61.9987 185.822 62.3293 185.011 62.564C184.222 62.7987 183.305 62.916 182.259 62.916ZM201.28 62.5V41.38H206.624L213.248 58.692H213.408L220 41.38H225.12V62.5H221.792L222.016 44.9H221.728L214.752 62.5H211.552L204.64 44.9H204.352L204.576 62.5H201.28ZM237.383 62.916C235.783 62.916 234.364 62.5747 233.127 61.892C231.889 61.2093 230.919 60.2173 230.215 58.916C229.532 57.6147 229.191 56.0147 229.191 54.116C229.191 52.1747 229.553 50.564 230.279 49.284C231.004 48.004 231.975 47.044 233.191 46.404C234.428 45.764 235.815 45.444 237.351 45.444C238.929 45.444 240.337 45.7747 241.575 46.436C242.812 47.0973 243.783 48.0787 244.487 49.38C245.212 50.6813 245.575 52.3027 245.575 54.244C245.575 56.164 245.212 57.7747 244.487 59.076C243.783 60.356 242.812 61.316 241.575 61.956C240.337 62.596 238.94 62.916 237.383 62.916ZM237.511 60.164C238.471 60.164 239.292 59.94 239.975 59.492C240.657 59.044 241.18 58.3827 241.543 57.508C241.905 56.6333 242.087 55.588 242.087 54.372C242.087 53.1133 241.895 52.036 241.511 51.14C241.127 50.2227 240.572 49.5187 239.847 49.028C239.143 48.5373 238.279 48.292 237.255 48.292C236.337 48.292 235.527 48.516 234.823 48.964C234.14 49.3907 233.617 50.0413 233.255 50.916C232.892 51.7693 232.711 52.8147 232.711 54.052C232.711 55.9933 233.137 57.4973 233.991 58.564C234.844 59.6307 236.017 60.164 237.511 60.164ZM255.351 62.916C253.943 62.916 252.727 62.5533 251.703 61.828C250.679 61.0813 249.901 60.0573 249.367 58.756C248.834 57.4333 248.567 55.908 248.567 54.18C248.567 52.4947 248.813 51.0013 249.303 49.7C249.815 48.3773 250.562 47.3427 251.543 46.596C252.546 45.8493 253.773 45.476 255.223 45.476C256.375 45.476 257.325 45.7107 258.071 46.18C258.818 46.628 259.415 47.2467 259.863 48.036C260.333 48.8253 260.685 49.7 260.919 50.66H261.559C261.453 50.0413 261.346 49.4013 261.239 48.74C261.133 48.0573 261.047 47.4067 260.983 46.788C260.919 46.148 260.887 45.5827 260.887 45.092V39.94H264.407V54.308V62.5H261.367L261.495 57.892H260.919C260.663 58.9373 260.301 59.8333 259.831 60.58C259.362 61.3267 258.754 61.9027 258.007 62.308C257.282 62.7133 256.397 62.916 255.351 62.916ZM256.311 59.972C257.058 59.972 257.719 59.8013 258.295 59.46C258.871 59.1187 259.351 58.6707 259.735 58.116C260.119 57.5613 260.407 56.964 260.599 56.324C260.813 55.6627 260.919 55.044 260.919 54.468V54.02C260.919 53.5933 260.855 53.1347 260.727 52.644C260.621 52.132 260.439 51.6307 260.183 51.14C259.949 50.628 259.65 50.1693 259.287 49.764C258.925 49.3587 258.487 49.0387 257.975 48.804C257.485 48.548 256.93 48.42 256.311 48.42C255.415 48.42 254.658 48.676 254.039 49.188C253.442 49.6787 252.983 50.3613 252.663 51.236C252.343 52.1107 252.183 53.1133 252.183 54.244C252.183 55.396 252.343 56.4093 252.663 57.284C253.005 58.1373 253.485 58.7987 254.103 59.268C254.722 59.7373 255.458 59.972 256.311 59.972ZM276.509 62.916C275.187 62.916 274.013 62.724 272.989 62.34C271.965 61.9347 271.101 61.3693 270.397 60.644C269.693 59.8973 269.16 59.012 268.797 57.988C268.435 56.9427 268.253 55.7693 268.253 54.468C268.253 53.1667 268.435 51.972 268.797 50.884C269.16 49.7747 269.672 48.8147 270.333 48.004C271.016 47.1933 271.848 46.564 272.829 46.116C273.832 45.668 274.963 45.444 276.221 45.444C277.395 45.444 278.44 45.636 279.357 46.02C280.296 46.404 281.085 46.9907 281.725 47.78C282.365 48.548 282.845 49.5187 283.165 50.692C283.485 51.844 283.603 53.1987 283.517 54.756L270.493 54.852V52.676L281.469 52.58L280.253 53.924C280.381 52.644 280.275 51.588 279.933 50.756C279.592 49.924 279.101 49.3053 278.461 48.9C277.821 48.4947 277.085 48.292 276.253 48.292C275.315 48.292 274.493 48.5373 273.789 49.028C273.107 49.4973 272.573 50.1907 272.189 51.108C271.805 52.0253 271.613 53.124 271.613 54.404C271.613 56.324 272.04 57.7747 272.893 58.756C273.747 59.716 274.963 60.196 276.541 60.196C277.203 60.196 277.768 60.1213 278.237 59.972C278.707 59.8013 279.101 59.588 279.421 59.332C279.741 59.0547 279.997 58.7347 280.189 58.372C280.403 57.988 280.573 57.5933 280.701 57.188L283.741 57.892C283.549 58.6813 283.251 59.3853 282.845 60.004C282.461 60.6013 281.971 61.124 281.373 61.572C280.776 61.9987 280.072 62.3293 279.261 62.564C278.472 62.7987 277.555 62.916 276.509 62.916Z" fill="#0069F5"/>
<path d="M20.8333 37L45 51.5L20.8333 66V37Z" fill="#0069F5" stroke="#0069F5" stroke-width="2" stroke-linecap="round" stroke-linejoin="round"/>
</svg>
